<svg width="189" height="56" viewBox="0 0 189 56" fill="none" xmlns="http://www.w3.org/2000/svg">
<path fill-rule="evenodd" clip-rule="evenodd" d="M27.1252 36.5346C26.926 36.7088 26.8603 36.7969 26.5973 36.9053C26.5204 36.9375 26.5657 36.9198 26.5243 36.9297C25.9978 37.0572 25.9347 37.2584 25.18 37.2071C22.5682 37.2971 15.9463 32.1774 13.5199 30.5767C13.2556 30.4031 12.7771 30.2421 12.8461 29.8759C12.9809 29.1587 15.7839 27.6112 16.5794 27.3916C16.6031 27.3857 16.7109 27.3535 16.7234 27.3496C16.7819 27.3292 16.8108 27.3088 16.866 27.2917C18.0204 26.9328 25.7361 28.4369 27.5262 28.7827C27.6997 28.8011 27.5032 28.7715 27.5992 28.7827L27.8772 28.8405C27.9772 28.8445 27.872 28.8149 28.0179 28.8675L28.3223 28.9562C28.5011 29.0312 28.9106 29.3421 28.9383 29.5439L28.9968 30.0554C29.0066 30.2112 27.6912 34.9069 27.5768 35.6556C27.5768 35.7122 27.586 35.6326 27.5735 35.7319C27.5729 35.7398 27.5604 35.795 27.5577 35.8095C27.5499 35.8522 27.5433 35.9173 27.5341 35.9567C27.4913 36.148 27.2843 36.3959 27.1252 36.5346V36.5346ZM0.00012207 21.8952L6.44383 15.4522C6.49313 20.0217 8.12345 25.8665 9.43691 29.0976C9.66042 29.5538 10.089 29.9752 10.5985 30.3827C12.8658 32.1938 23.4366 38.8565 24.5226 38.744C24.9979 38.6099 26.2923 38.2891 27.7813 37.9059L21.8957 43.7915L0.00012207 21.8952ZM10.6543 11.2409L11.3393 10.5565C13.1813 10.0129 15.1456 9.44753 17.0093 9.27792C18.8671 9.10832 19.6303 9.24571 21.4874 9.44424C21.7668 9.47251 22.6543 9.68748 22.8949 9.79989C25.9044 11.21 27.9969 12.3874 30.8973 14.1472C31.0918 14.2839 31.3094 14.3004 31.5343 14.5127C31.7643 14.7303 31.5816 15.011 31.3712 15.0261C31.339 15.0287 31.3515 15.0241 31.3015 15.0202C30.821 14.9847 24.681 15.811 24.2636 15.8597C24.1255 15.8873 23.9717 16.0089 24.0946 16.1667C24.4069 16.5664 25.0136 16.4842 25.4587 16.5125L25.9458 16.4881C26.1167 16.4763 32.2811 15.907 32.7531 16.0602C32.7958 16.074 32.828 16.0957 32.8793 16.1101C33.371 16.2515 33.2796 16.3481 33.5229 16.6656C33.5268 16.6709 36.6823 23.5242 36.5988 24.5332L36.4522 25.5285C36.3509 25.8539 35.0579 29.4538 34.0823 31.6041L29.9342 35.7529C29.9243 35.7561 29.9125 35.7594 29.8993 35.7634L29.2939 35.8758C29.2084 35.8843 29.146 35.8903 29.0513 35.8988C28.9146 35.9106 28.9165 35.9317 28.7706 35.8094C28.7713 35.7976 28.7745 35.768 28.7745 35.7614C29.1972 33.1135 29.9408 31.7895 31.6914 29.8331C32.4369 29.0008 34.4471 27.8162 34.6384 26.8538C34.649 26.8019 34.6516 26.7894 34.67 26.725C34.5333 26.5928 34.4084 26.6507 34.2355 26.65C34.0468 26.6487 33.9429 26.6796 33.8752 26.6993C32.0602 27.4021 31.9254 28.774 29.9362 28.6123C29.708 28.5696 29.6923 28.6005 29.4457 28.3481C27.4775 26.3292 21.7037 18.9093 21.5643 18.6398L21.2771 18.1014C21.1732 17.8516 21.1331 17.5229 21.2343 17.2671C21.3093 17.0772 21.5624 16.8129 21.7313 16.757C21.9377 16.69 22.5879 16.5979 22.2178 15.9511C22.1185 15.7775 22.0028 15.7939 21.8306 15.7716C21.5459 15.7341 21.283 15.7992 21.0095 15.8748C20.7156 15.9557 20.3094 15.9826 20.0201 15.8939L19.5941 15.7939C19.462 15.746 19.4607 15.788 19.3226 15.7354C19.1386 15.6644 19.0702 15.669 18.8566 15.5454C18.6929 15.4501 18.5975 15.4501 18.4286 15.3712C15.8411 14.0183 13.1846 12.6871 10.6543 11.2409V11.2409ZM13.255 8.64028L21.8957 0.000244141L43.7913 21.8952L37.7137 27.9734C38.1358 26.8979 38.523 25.99 38.8122 25.4792C38.9805 25.1828 39.0653 24.9086 39.0765 24.5891C39.0791 24.5221 39.0851 24.4932 39.0811 24.4432L39.0509 24.3005C39.0496 24.2933 39.0469 24.2835 39.0456 24.2762C38.3146 22.5427 34.8364 14.7638 34.8377 14.7625C31.8407 12.294 26.6499 9.88077 22.9725 8.12357C22.5906 7.94148 22.11 7.80737 21.734 7.71665C21.665 7.69956 21.4881 7.72125 21.3146 7.68444C18.8579 7.54967 15.9503 8.06506 13.255 8.64028V8.64028ZM27.3777 27.9057L27.2764 28.03C27.1837 28.0023 27.1312 27.9603 27.0312 27.9399C23.9691 27.1819 20.8321 26.1893 17.8495 25.8113L17.0922 25.8363C16.8864 25.8455 16.7957 25.8928 16.609 25.9184C16.256 25.9671 15.9707 26.0972 15.6348 26.234C14.2628 26.8197 13.2241 27.458 11.9205 28.1588C11.7306 28.2495 11.5347 28.2738 11.3046 28.3448C11.1941 28.2679 11.0824 28.1996 11.0311 28.0917L10.801 27.2786C10.1686 24.4255 7.11833 15.2241 9.47111 12.7812C9.59405 12.6543 9.60588 12.6741 9.73867 12.6708C10.0871 12.6629 10.0108 12.6399 10.308 12.7937C12.5832 13.975 17.3506 15.7848 18.5542 17.214C18.6535 17.3316 18.6423 17.3671 18.737 17.4881C18.8185 17.5926 18.8796 17.6308 18.9381 17.7386C19.0782 17.9969 19.3115 18.2868 19.5028 18.5425C19.5791 18.6451 19.6021 18.7161 19.6573 18.797C21.5276 21.5376 24.9644 25.6594 27.3777 27.9057V27.9057Z" fill="#893001"/>
<path fill-rule="evenodd" clip-rule="evenodd" d="M98.6571 55.0185H97.4153V50.3944C97.4153 50.0552 97.3923 49.7627 97.3476 49.5227C97.3003 49.2801 97.1826 49.0658 96.992 48.8798C96.8007 48.6931 96.5015 48.5991 96.0966 48.5991C95.6088 48.5991 95.1901 48.7713 94.8344 49.1105C94.4807 49.4517 94.3039 50.0033 94.3039 50.7665V55.0185H93.0601V50.255C93.0601 49.6213 92.9497 49.1855 92.7255 48.9521C92.502 48.7174 92.1865 48.5991 91.7762 48.5991C91.2438 48.5991 90.8059 48.7832 90.4621 49.1526C90.1203 49.5201 89.9481 50.2084 89.9481 51.2161V55.0185H88.7069V47.6972H89.8232V48.7174H89.8514C90.3491 47.9253 91.0794 47.5295 92.0405 47.5295C92.5769 47.5295 93.02 47.638 93.3691 47.853C93.7149 48.0646 93.9673 48.3874 94.1251 48.8134C94.6668 47.9581 95.4182 47.5295 96.3793 47.5295C97.1399 47.5295 97.7078 47.7346 98.0898 48.1442C98.4684 48.5544 98.6571 49.1697 98.6571 49.9868V55.0185ZM106.476 55.0185H105.17C105.051 54.7871 104.965 54.486 104.916 54.1139C104.082 54.8324 103.183 55.19 102.217 55.19C101.444 55.19 100.834 54.9968 100.389 54.6109C99.941 54.2243 99.7201 53.7136 99.7201 53.0798C99.7201 52.4718 99.9338 51.9728 100.363 51.579C100.794 51.1859 101.54 50.9243 102.603 50.7948L103.762 50.6225C104.195 50.5522 104.551 50.4674 104.831 50.3661C104.831 49.9934 104.822 49.7298 104.798 49.5766C104.775 49.4215 104.707 49.2637 104.594 49.0961C104.481 48.9311 104.301 48.797 104.052 48.6957C103.805 48.5945 103.47 48.5452 103.053 48.5452C102.519 48.5452 102.097 48.6438 101.786 48.8417C101.475 49.0395 101.262 49.407 101.147 49.9467L99.9318 49.7863C100.066 49.0376 100.41 48.4742 100.961 48.0975C101.512 47.7182 102.273 47.5295 103.239 47.5295C104.117 47.5295 104.764 47.6597 105.173 47.9207C105.585 48.1803 105.84 48.4933 105.934 48.8634C106.028 49.2308 106.076 49.7042 106.076 50.2833V51.9537C106.076 52.9714 106.094 53.6518 106.134 54.0008C106.172 54.3473 106.287 54.6865 106.476 55.0185V55.0185ZM104.831 51.796V51.3457C104.184 51.5626 103.39 51.7342 102.452 51.8618C101.512 51.9867 101.043 52.385 101.043 53.0516C101.043 53.3882 101.171 53.6637 101.423 53.8826C101.677 54.1021 102.04 54.2106 102.513 54.2106C103.126 54.2106 103.666 54.0292 104.132 53.6617C104.599 53.2962 104.831 52.6749 104.831 51.796V51.796ZM113.527 55.0185H112.368V54.0856H112.339C111.894 54.8226 111.22 55.1901 110.318 55.1901C109.42 55.1901 108.672 54.8344 108.071 54.1257C107.47 53.4145 107.171 52.4935 107.171 51.3601C107.171 50.1775 107.454 49.2446 108.019 48.559C108.584 47.8733 109.334 47.5295 110.261 47.5295C111.136 47.5295 111.802 47.8641 112.256 48.5307H112.285V44.9006H113.527V55.0185ZM110.447 54.1704C110.992 54.1704 111.451 53.9462 111.829 53.4986C112.207 53.0535 112.396 52.3777 112.396 51.4705C112.396 50.5778 112.221 49.8665 111.877 49.3386C111.531 48.8088 111.037 48.5452 110.393 48.5452C109.751 48.5452 109.262 48.8042 108.933 49.3222C108.605 49.8382 108.44 50.5186 108.44 51.3601C108.44 51.9675 108.53 52.4816 108.707 52.903C108.883 53.3244 109.131 53.6399 109.449 53.8522C109.764 54.0639 110.099 54.1704 110.447 54.1704V54.1704ZM121.448 51.6711H115.96C116.012 52.4816 116.242 53.1009 116.654 53.5269C117.067 53.9561 117.581 54.1704 118.198 54.1704C118.671 54.1704 119.069 54.0436 119.392 53.7938C119.713 53.544 119.96 53.1646 120.129 52.6578L121.406 52.8156C121.2 53.5814 120.82 54.1678 120.269 54.5754C119.715 54.9856 119.025 55.19 118.198 55.19C117.097 55.19 116.238 54.8535 115.618 54.1796C115.001 53.5058 114.69 52.5848 114.69 51.4166C114.69 50.2603 114.992 49.3248 115.593 48.6063C116.193 47.8904 117.036 47.5295 118.127 47.5295C118.662 47.5295 119.175 47.6479 119.67 47.8832C120.165 48.1159 120.584 48.5169 120.93 49.0796C121.274 49.643 121.448 50.5075 121.448 51.6711V51.6711ZM120.172 50.6508C120.12 49.904 119.889 49.3669 119.477 49.0375C119.064 48.7102 118.615 48.5452 118.127 48.5452C117.542 48.5452 117.063 48.7404 116.685 49.1315C116.309 49.5227 116.09 50.0289 116.031 50.6508H120.172ZM128.546 55.0185H127.298V50.566C127.298 49.8172 127.163 49.3012 126.895 49.0211C126.626 48.7404 126.252 48.5991 125.774 48.5991C125.404 48.5991 125.058 48.6885 124.728 48.8699C124.398 49.0487 124.164 49.3012 124.026 49.6286C123.889 49.9559 123.821 50.4174 123.821 51.0163V55.0185H122.577V47.6972H123.696V48.7312H123.724C123.986 48.3309 124.308 48.0318 124.693 47.8313C125.076 47.6308 125.522 47.5295 126.028 47.5295C126.415 47.5295 126.796 47.6005 127.173 47.7373C127.553 47.876 127.847 48.083 128.061 48.3591C128.275 48.6346 128.409 48.9291 128.464 49.242C128.52 49.5556 128.546 49.9776 128.546 50.5121V55.0185ZM136.04 52.4862C135.88 53.419 135.512 54.104 134.938 54.5379C134.36 54.9738 133.71 55.19 132.982 55.19C131.92 55.19 131.1 54.8416 130.521 54.1441C129.938 53.4467 129.649 52.5237 129.649 51.3739C129.649 50.4227 129.817 49.6595 130.151 49.0869C130.483 48.5143 130.902 48.1113 131.404 47.8786C131.904 47.6479 132.43 47.5295 132.982 47.5295C133.739 47.5295 134.383 47.7254 134.919 48.1159C135.456 48.5077 135.786 49.0823 135.91 49.8429L134.709 50.0289C134.584 49.5365 134.383 49.1671 134.105 48.9173C133.826 48.6701 133.47 48.5452 133.038 48.5452C132.344 48.5452 131.816 48.7897 131.458 49.2821C131.1 49.7745 130.919 50.4621 130.919 51.3457C130.919 52.2482 131.095 52.9457 131.448 53.4355C131.8 53.9252 132.306 54.1704 132.971 54.1704C133.503 54.1704 133.922 54.0173 134.228 53.7109C134.535 53.4046 134.728 52.9457 134.805 52.333L136.04 52.4862ZM136.728 55.0184H137.971V47.6971H136.728V55.0184ZM136.728 46.3094H137.971V44.9006H136.728V46.3094ZM139.486 55.0185H140.73V44.9006H139.486V55.0185ZM142.245 55.0184H143.49V47.6971H142.245V55.0184ZM142.245 46.3094H143.49V44.9006H142.245V46.3094ZM151.072 55.0185H149.546L147.11 51.2707L146.234 52.1069V55.0185H144.992V44.9006H146.234V50.6626L149.173 47.6972H150.787L147.987 50.4082L151.072 55.0185Z" fill="#323231"/>
<path fill-rule="evenodd" clip-rule="evenodd" d="M121.278 35.4864H117.675V31.9977H117.568C115.744 34.6923 113.263 36.0439 110.117 36.0439C108.46 36.0439 106.934 35.6619 105.521 34.8908C104.109 34.1276 103.17 33.0666 102.705 31.715C102.231 30.3719 102.002 28.624 102.002 26.471V11.76H106.026V24.9058C106.026 27.0127 106.125 28.5168 106.323 29.4253C106.529 30.3338 107.056 31.0819 107.904 31.6696C108.75 32.2646 109.766 32.5551 110.941 32.5551C112.469 32.5551 113.896 32.0286 115.239 30.982C116.583 29.9289 117.255 27.7457 117.255 24.4403V11.76H121.278V35.4864Z" fill="#313130"/>
<path fill-rule="evenodd" clip-rule="evenodd" d="M145.806 35.4864H140.844L134.669 26.0963L128.432 35.4864H123.531L132.234 23.1197L124.226 11.76H129.21C132.462 16.6608 134.234 19.4015 134.532 19.9668L140.348 11.76H145.158L136.951 22.8981L145.806 35.4864Z" fill="#313130"/>
<mask id="mask0" mask-type="alpha" maskUnits="userSpaceOnUse" x="0" y="0" width="189" height="56">
<path fill-rule="evenodd" clip-rule="evenodd" d="M0 55.1902H189V0H0V55.1902Z" fill="white"/>
</mask>
<g mask="url(#mask0)">
<path fill-rule="evenodd" clip-rule="evenodd" d="M147.944 35.4863H151.975V11.7599H147.944V35.4863ZM147.944 7.26411H151.975V2.69922H147.944V7.26411Z" fill="#313130"/>
<path fill-rule="evenodd" clip-rule="evenodd" d="M166.144 35.4405C164.952 35.6772 163.945 35.7995 163.128 35.7995C161.364 35.7995 160.082 35.4866 159.281 34.868C158.472 34.2494 157.983 33.4638 157.807 32.5092C157.624 31.5547 157.532 30.234 157.532 28.5321V14.867H154.609V11.7602H157.532V3.40674L161.563 3.4166V11.7602H165.586V14.867H161.563V28.7536C161.563 29.9441 161.686 30.7915 161.93 31.2951C162.174 31.7914 162.8 32.0438 163.801 32.0438C164.38 32.0438 164.976 31.9827 165.586 31.8604L166.144 35.4405Z" fill="#313130"/>
<path fill-rule="evenodd" clip-rule="evenodd" d="M189 24.6387H171.213C171.381 27.2649 172.129 29.2726 173.465 30.6544C174.8 32.0435 176.466 32.7384 178.465 32.7384C180 32.7384 181.29 32.3262 182.335 31.5169C183.374 30.7077 184.175 29.4784 184.725 27.8375L188.863 28.349C188.191 30.83 186.961 32.7305 185.176 34.0512C183.381 35.3797 181.145 36.0437 178.465 36.0437C174.9 36.0437 172.114 34.9518 170.106 32.7686C168.106 30.5854 167.099 27.6009 167.099 23.8143C167.099 20.0659 168.075 17.0354 170.023 14.7069C171.969 12.3863 174.702 11.2181 178.237 11.2181C179.969 11.2181 181.633 11.6001 183.236 12.3633C184.839 13.1193 186.198 14.417 187.32 16.2412C188.435 18.0655 189 20.8673 189 24.6387V24.6387ZM184.862 21.3334C184.694 18.9135 183.947 17.1728 182.61 16.1038C181.274 15.0428 179.816 14.5084 178.237 14.5084C176.343 14.5084 174.786 15.1421 173.565 16.4089C172.343 17.6763 171.633 19.3178 171.442 21.3334H184.862Z" fill="#313130"/>
<path fill-rule="evenodd" clip-rule="evenodd" d="M86.5266 32.5527C83.3698 32.5527 81.9328 30.5727 81.9328 28.7326C81.9328 24.5812 87.4272 24.0481 92.2143 24.0481H93.0308V24.5464C93.0308 28.4131 90.417 32.5527 86.5266 32.5527M88.0734 11.2119C82.8052 11.2119 79.7286 13.8171 79.5997 13.9276L79.2763 14.2076L81.2563 17.4268L81.7021 17.0646C81.7277 17.0442 84.2895 14.9939 87.8466 14.9939C91.3347 14.9939 93.0308 16.7635 93.0308 20.4055V20.4942H92.2597C88.669 20.4942 77.7426 20.4942 77.7426 28.9147C77.7426 33.6959 81.9098 36.1972 86.0257 36.1972C89.8024 36.1972 92.0296 34.131 93.1675 32.5836V35.6509H97.1303V20.4968C97.1303 14.5094 93.9137 11.2119 88.0734 11.2119" fill="#313130"/>
<path fill-rule="evenodd" clip-rule="evenodd" d="M63.8776 32.0549C67.8068 32.0549 70.3463 28.6266 70.3463 23.3208C70.3463 18.2057 67.6319 14.6322 63.7468 14.6322C60.5052 14.6322 57.2347 17.3189 57.2347 23.3208C57.2347 29.7606 60.6663 32.0549 63.8776 32.0549V32.0549ZM57.3215 13.9859C58.3897 12.633 60.4684 10.8508 64.0091 10.8508C70.1109 10.8508 74.3721 15.9785 74.3721 23.3208C74.3721 30.8071 70.3305 35.8361 64.3147 35.8361C60.5216 35.8361 58.3384 33.9113 57.2347 32.4716V35.2905H53.3831V2.29626H57.3215V13.9859Z" fill="#313130"/>
</g>
</svg>
