<?xml version="1.0" encoding="utf-8"?>
<!-- Generator: Adobe Illustrator 24.0.2, SVG Export Plug-In . SVG Version: 6.00 Build 0)  -->
<svg version="1.1" id="Layer_1" xmlns="http://www.w3.org/2000/svg" xmlns:xlink="http://www.w3.org/1999/xlink" x="0px" y="0px"
	 viewBox="0 0 214 60" style="enable-background:new 0 0 214 60;" xml:space="preserve">
<style type="text/css">
	.st0{fill:#404041;}
	.st1{fill-rule:evenodd;clip-rule:evenodd;fill:#FF8300;}
</style>
<g>
	<g>
		<path class="st0" d="M83.6,34.6h-3.9V20c0-1.1-0.1-2-0.2-2.8c-0.1-0.8-0.5-1.4-1.1-2c-0.6-0.6-1.5-0.9-2.8-0.9
			c-1.5,0-2.9,0.5-4,1.6c-1.1,1.1-1.7,2.8-1.7,5.2v13.4h-3.9V19.5c0-2-0.4-3.4-1.1-4.1c-0.7-0.7-1.7-1.1-3-1.1
			c-1.7,0-3.1,0.6-4.2,1.7c-1.1,1.2-1.6,3.3-1.6,6.5v12h-3.9V11.4h3.5v3.2h0.1c1.6-2.5,3.9-3.8,6.9-3.8c1.7,0,3.1,0.3,4.2,1
			c1.1,0.7,1.9,1.7,2.4,3c1.7-2.7,4.1-4.1,7.1-4.1c2.4,0,4.2,0.6,5.4,1.9c1.2,1.3,1.8,3.2,1.8,5.8V34.6z"/>
	</g>
	<g>
		<path class="st0" d="M107.2,34.6h-3.9V20.5c0-2.4-0.4-4-1.3-4.9c-0.9-0.9-2-1.3-3.5-1.3c-1.2,0-2.3,0.3-3.3,0.9
			c-1,0.6-1.8,1.4-2.2,2.4c-0.4,1-0.7,2.5-0.7,4.4v12.7h-3.9V11.4h3.5v3.3h0.1c0.8-1.3,1.9-2.2,3.1-2.8c1.2-0.6,2.6-0.9,4.2-0.9
			c1.2,0,2.4,0.2,3.6,0.7c1.2,0.4,2.1,1.1,2.8,2c0.7,0.9,1.1,1.8,1.3,2.8c0.2,1,0.3,2.3,0.3,4V34.6z"/>
	</g>
	<g>
		<path class="st0" d="M130.6,34.6h-3.7v-2.9h-0.1c-1.4,2.3-3.5,3.5-6.4,3.5c-2.8,0-5.2-1.1-7.1-3.4c-1.9-2.2-2.8-5.2-2.8-8.7
			c0-3.7,0.9-6.7,2.7-8.9c1.8-2.2,4.2-3.3,7.1-3.3c2.8,0,4.9,1.1,6.3,3.2h0.1V2.6h3.9V34.6z M120.9,31.9c1.7,0,3.2-0.7,4.4-2.1
			c1.2-1.4,1.8-3.5,1.8-6.4c0-2.8-0.5-5.1-1.6-6.7c-1.1-1.7-2.7-2.5-4.7-2.5s-3.6,0.8-4.6,2.5c-1,1.6-1.6,3.8-1.6,6.4
			c0,1.9,0.3,3.5,0.8,4.9c0.6,1.3,1.3,2.3,2.3,3S119.8,31.9,120.9,31.9z"/>
	</g>
	<g>
		<path class="st0" d="M154.5,31.5c0,3.3-0.3,5.7-1,7.4c-0.7,1.6-1.8,2.9-3.5,3.8c-1.7,0.9-3.7,1.4-6,1.4c-2.6,0-4.8-0.6-6.5-1.7
			c-1.7-1.2-2.6-3.1-2.6-5.7l3.8,0.6c0.1,1.2,0.7,2.1,1.5,2.7c0.9,0.6,2.1,0.9,3.8,0.9c2,0,3.5-0.4,4.5-1.2c0.9-0.8,1.5-1.8,1.7-3
			c0.2-1.2,0.3-2.8,0.3-4.9c-1.7,2-3.8,3-6.4,3c-3,0-5.4-1.1-7.3-3.3c-1.8-2.2-2.7-5-2.7-8.4c0-3.4,0.9-6.2,2.7-8.5
			c1.8-2.3,4.2-3.4,7.4-3.4c2.7,0,5,1.1,6.7,3.3h0.1v-2.8h3.6V31.5z M144.4,31.4c1.7,0,3.2-0.7,4.5-2c1.3-1.3,1.9-3.6,1.9-6.7
			c0-2.8-0.6-4.9-1.9-6.4c-1.2-1.5-2.8-2.2-4.6-2.2c-1.9,0-3.4,0.8-4.5,2.3c-1.2,1.5-1.8,3.6-1.8,6.2c0,3,0.6,5.3,1.8,6.7
			C141.2,30.7,142.7,31.4,144.4,31.4z"/>
	</g>
	<g>
		<path class="st0" d="M164.4,34.6h-3.9V11.4h3.9V34.6z"/>
	</g>
	<g>
		<path class="st0" d="M189.1,34.6h-3.7v-2.9h-0.1c-1.4,2.3-3.5,3.5-6.4,3.5c-2.8,0-5.2-1.1-7.1-3.4c-1.9-2.2-2.8-5.2-2.8-8.7
			c0-3.7,0.9-6.7,2.7-8.9c1.8-2.2,4.2-3.3,7.1-3.3c2.8,0,4.9,1.1,6.3,3.2h0.1V2.6h3.9V34.6z M179.4,31.9c1.7,0,3.2-0.7,4.4-2.1
			c1.2-1.4,1.8-3.5,1.8-6.4c0-2.8-0.5-5.1-1.6-6.7c-1.1-1.7-2.7-2.5-4.7-2.5c-2,0-3.6,0.8-4.6,2.5c-1,1.6-1.6,3.8-1.6,6.4
			c0,1.9,0.3,3.5,0.8,4.9c0.6,1.3,1.3,2.3,2.3,3S178.3,31.9,179.4,31.9z"/>
	</g>
	<g>
		<path class="st0" d="M214.1,34.6H210c-0.4-0.7-0.6-1.7-0.8-2.9c-2.6,2.3-5.5,3.4-8.5,3.4c-2.4,0-4.4-0.6-5.8-1.8s-2.1-2.8-2.1-4.8
			c0-1.9,0.7-3.5,2-4.7s3.7-2.1,7.1-2.5l3.7-0.5c1.4-0.2,2.5-0.5,3.4-0.8c0-1.2,0-2-0.1-2.5c-0.1-0.5-0.3-1-0.6-1.5
			c-0.4-0.5-0.9-0.9-1.7-1.3c-0.8-0.3-1.8-0.5-3.2-0.5c-1.7,0-3,0.3-4,0.9c-1,0.6-1.7,1.8-2,3.5l-3.8-0.5c0.4-2.4,1.5-4.2,3.3-5.3
			c1.7-1.2,4.1-1.8,7.2-1.8c2.8,0,4.8,0.4,6.1,1.2c1.3,0.8,2.1,1.8,2.4,3c0.3,1.2,0.4,2.7,0.4,4.5v5.3c0,3.2,0.1,5.4,0.2,6.5
			C213.1,32.5,213.5,33.5,214.1,34.6z M208.9,24.4V23c-2.1,0.7-4.6,1.2-7.5,1.6c-3,0.4-4.5,1.7-4.5,3.8c0,1.1,0.4,1.9,1.2,2.6
			s1.9,1,3.4,1c1.9,0,3.6-0.6,5.1-1.7S208.9,27.2,208.9,24.4z"/>
	</g>
	<path class="st1" d="M10.2,11.1L21.3,0l21.3,21.3L34.9,29c-1.4-4.3-5.4-7.4-10.2-7.4c-1,0-2,0.1-2.9,0.4l7.2-7.2
		c-4.1-2.3-9.3-1.7-12.8,1.8c-0.7,0.7-1.3,1.5-1.8,2.4V8.8C12.8,9.2,11.4,10,10.2,11.1 M0,21.3L9.3,12c-1.7,1.9-2.7,4.4-2.7,7.1
		c0,4.9,3.3,9,7.8,10.3v0l0,0l0,0h20.1L21.3,42.6L0,21.3z"/>
</g>
</svg>
