<svg width="189" height="63" viewBox="0 0 189 63" fill="none" xmlns="http://www.w3.org/2000/svg">
<path fill-rule="evenodd" clip-rule="evenodd" d="M0 26.5541L16.9978 43.5519L21.3756 35.5881H15.5097L23.8852 21.9197H16.298L30.9332 7.52455L24.981 1.57312L0 26.5541Z" fill="#487A26"/>
<path fill-rule="evenodd" clip-rule="evenodd" d="M32.2548 8.84607L27.877 16.8098H33.7429L25.3681 30.479H32.9554L18.3194 44.8727L24.9819 51.5351L49.9629 26.5541L32.2548 8.84607Z" fill="#2B531F"/>
<path fill-rule="evenodd" clip-rule="evenodd" d="M73.1851 14.3257C77.7117 14.3257 80.7531 18.2508 80.7531 24.0937C80.7531 29.8752 77.5782 33.9135 73.0313 33.9135C68.0299 33.9135 65.4115 28.9983 65.4115 24.144C65.4115 16.9044 69.4273 14.3257 73.1851 14.3257M73.696 10.0234C69.1869 10.0234 66.6413 12.137 65.3603 13.7368V10.637H60.9052V47.7286H65.514V34.8867C65.514 34.7584 65.5133 34.6339 65.5118 34.5132C66.7763 36.0522 69.2424 38.1118 73.3893 38.1118C80.4987 38.1118 85.4646 32.3471 85.4646 24.0931C85.4646 15.6771 80.735 10.0234 73.696 10.0234" fill="#323231"/>
<path fill-rule="evenodd" clip-rule="evenodd" d="M96.7674 34.0151C93.2181 34.0151 91.6025 31.7889 91.6025 29.7202C91.6025 25.0526 97.78 24.4533 103.162 24.4533H104.08V25.0144C104.08 29.361 101.141 34.0151 96.7674 34.0151M98.5055 10.0229C92.5826 10.0229 89.125 12.951 88.9795 13.0763L88.6157 13.3906L90.8425 17.0094L91.3428 16.6029C91.3713 16.5789 94.2514 14.2741 98.2505 14.2741C102.172 14.2741 104.079 16.2639 104.079 20.3583V20.458H103.212C99.1753 20.458 86.8922 20.458 86.8922 29.924C86.8922 35.2987 91.5768 38.1113 96.2037 38.1113C100.45 38.1113 102.953 35.7885 104.233 34.0484V37.497H108.688V20.4603C108.688 13.7296 105.072 10.0229 98.5055 10.0229" fill="#323231"/>
<path fill-rule="evenodd" clip-rule="evenodd" d="M127.817 10.0227C122.913 10.0227 119.74 12.632 118.101 14.9226V10.6362H113.543V37.4968H118.152V24.6039C118.152 23.2816 118.278 22.1941 118.54 21.2768C119.658 17.2439 123.283 14.4276 127.357 14.4276C131.547 14.4276 132.367 17.0144 132.367 21.4838V37.4968H136.976V20.5628C136.976 13.3716 134.066 10.0227 127.817 10.0227" fill="#323231"/>
<path fill-rule="evenodd" clip-rule="evenodd" d="M177.203 33.4562C181.62 33.4562 184.474 29.6017 184.474 23.6365C184.474 17.8858 181.424 13.8685 177.055 13.8685C173.411 13.8685 169.734 16.889 169.734 23.6365C169.734 30.8768 173.592 33.4562 177.203 33.4562V33.4562ZM169.832 13.1411C171.032 11.6208 173.37 9.61679 177.349 9.61679C184.21 9.61679 189 15.3815 189 23.6355C189 32.0507 184.457 37.7051 177.693 37.7051C173.43 37.7051 170.974 35.5413 169.734 33.9228V37.0924H165.404V0H169.832V13.1411Z" fill="#323231"/>
<path fill-rule="evenodd" clip-rule="evenodd" d="M149.768 34.0151C146.22 34.0151 144.605 31.7889 144.605 29.7202C144.605 25.0526 150.782 24.4533 156.163 24.4533H157.081V25.0144C157.081 29.361 154.143 34.0151 149.768 34.0151M151.507 10.0229C145.585 10.0229 142.126 12.951 141.981 13.0763L141.616 13.3906L143.844 17.0094L144.345 16.6029C144.374 16.5789 147.253 14.2741 151.252 14.2741C155.174 14.2741 157.08 16.2639 157.08 20.3583V20.458H156.213C152.177 20.458 139.893 20.458 139.893 29.924C139.893 35.2987 144.578 38.1113 149.206 38.1113C153.452 38.1113 155.955 35.7885 157.234 34.0484V37.497H161.69V20.4603C161.69 13.7296 158.073 10.0229 151.507 10.0229" fill="#323231"/>
<path fill-rule="evenodd" clip-rule="evenodd" d="M114.889 55.7661H108.627C108.686 56.6901 108.949 57.3974 109.42 57.8842C109.89 58.3733 110.476 58.6178 111.18 58.6178C111.72 58.6178 112.175 58.4723 112.543 58.188C112.908 57.903 113.191 57.4702 113.384 56.8919L114.841 57.0719C114.604 57.9457 114.171 58.6148 113.543 59.0798C112.911 59.5479 112.124 59.7819 111.18 59.7819C109.925 59.7819 108.944 59.3971 108.237 58.6283C107.533 57.8602 107.179 56.8094 107.179 55.4758C107.179 54.1564 107.522 53.0891 108.208 52.2693C108.893 51.4525 109.855 51.0407 111.1 51.0407C111.71 51.0407 112.295 51.175 112.86 51.4442C113.424 51.7105 113.903 52.1673 114.298 52.8093C114.69 53.4521 114.889 54.4385 114.889 55.7661V55.7661ZM113.433 54.6019C113.373 53.7499 113.11 53.1371 112.64 52.7613C112.169 52.3878 111.656 52.1995 111.1 52.1995C110.433 52.1995 109.885 52.4223 109.454 52.8686C109.024 53.3148 108.775 53.8924 108.707 54.6019H113.433ZM122.987 59.5854H121.562V54.5052C121.562 53.6509 121.409 53.0621 121.103 52.7426C120.797 52.4223 120.37 52.2611 119.824 52.2611C119.402 52.2611 119.007 52.3631 118.63 52.5701C118.255 52.7748 117.988 53.0621 117.83 53.4364C117.674 53.8099 117.596 54.3365 117.596 55.019V59.5854H116.177V51.232H117.454V52.4118H117.486C117.784 51.955 118.153 51.6138 118.591 51.385C119.029 51.1562 119.536 51.0407 120.115 51.0407C120.556 51.0407 120.991 51.1217 121.421 51.2777C121.853 51.436 122.189 51.6723 122.434 51.9873C122.678 52.3016 122.831 52.6376 122.894 52.9954C122.958 53.3524 122.987 53.8339 122.987 54.4437V59.5854ZM131.957 55.7661H125.694C125.753 56.6901 126.017 57.3974 126.487 57.8842C126.958 58.3733 127.543 58.6178 128.248 58.6178C128.788 58.6178 129.242 58.4723 129.61 58.188C129.976 57.903 130.258 57.4702 130.451 56.8919L131.908 57.0719C131.672 57.9457 131.239 58.6148 130.61 59.0798C129.978 59.5479 129.19 59.7819 128.248 59.7819C126.993 59.7819 126.011 59.3971 125.304 58.6283C124.6 57.8602 124.246 56.8094 124.246 55.4758C124.246 54.1564 124.59 53.0891 125.275 52.2693C125.961 51.4525 126.922 51.0407 128.167 51.0407C128.777 51.0407 129.363 51.175 129.928 51.4442C130.492 51.7105 130.97 52.1673 131.366 52.8093C131.758 53.4521 131.957 54.4385 131.957 55.7661V55.7661ZM130.499 54.6019C130.441 53.7499 130.178 53.1371 129.707 52.7613C129.237 52.3878 128.723 52.1995 128.167 52.1995C127.5 52.1995 126.952 52.4223 126.522 52.8686C126.093 53.3148 125.842 53.8924 125.775 54.6019H130.499ZM137.732 51.4899L137.246 52.7988C136.893 52.5918 136.549 52.4897 136.214 52.4897C135.681 52.4897 135.28 52.729 135.009 53.2023C134.734 53.6778 134.597 54.3439 134.597 55.1989V59.5853H133.182V51.2319H134.471V52.4897H134.503C134.956 51.5252 135.547 51.0406 136.275 51.0406C136.759 51.0406 137.246 51.1914 137.732 51.4899V51.4899ZM139.581 60.0337C139.581 60.585 139.543 61.0583 139.47 61.4558C139.396 61.8511 139.208 62.2006 138.898 62.5014C138.592 62.8052 138.116 62.9552 137.471 62.9552C137.097 62.9552 136.726 62.9072 136.358 62.8134L136.635 61.6171C136.899 61.6898 137.119 61.7273 137.296 61.7273C137.6 61.7273 137.82 61.6253 137.957 61.4213C138.094 61.2143 138.161 60.7433 138.161 60.0015V51.2318H139.581V60.0337ZM138.161 49.6486H139.581V48.0413H138.161V49.6486ZM141.308 59.5852H142.728V51.2318H141.308V59.5852ZM141.308 49.6486H142.728V48.0413H141.308V49.6486Z" fill="#323231"/>
</svg>
