<svg width="189" height="60" viewBox="0 0 189 60" fill="none" xmlns="http://www.w3.org/2000/svg">
<mask id="mask0" mask-type="alpha" maskUnits="userSpaceOnUse" x="0" y="0" width="50" height="50">
<path fill-rule="evenodd" clip-rule="evenodd" d="M0.00012207 0H49.6226V49.623H0.00012207V0Z" fill="white"/>
</mask>
<g mask="url(#mask0)">
<path fill-rule="evenodd" clip-rule="evenodd" d="M35.7666 10.955C41.2226 19.5218 31.8396 38.0356 24.7351 47.3827C24.7351 47.3827 34.8915 27.9518 24.8159 20.9146C24.8159 20.9146 18.2589 16.6764 9.54314 22.6739L15.6207 9.19042L0.00012207 24.8117L24.8114 49.623L49.6226 24.8117L35.7666 10.955ZM18.1909 6.62033L24.8115 -0.000244141L32.9265 8.11409C27.594 4.37333 21.1829 5.67934 18.1909 6.62033V6.62033Z" fill="#B7152C"/>
</g>
<path fill-rule="evenodd" clip-rule="evenodd" d="M72.8851 14.3093C77.3993 14.3093 80.4332 18.2236 80.4332 24.0505C80.4332 29.8162 77.2662 33.8434 72.7318 33.8434C67.7441 33.8434 65.1328 28.9417 65.1328 24.1014C65.1328 16.8817 69.1376 14.3093 72.8851 14.3093M73.3954 10.0188C68.8984 10.0188 66.3596 12.1267 65.0821 13.7229V10.6314H60.6389V47.6224H65.2354V34.8151C65.2354 34.6872 65.2346 34.563 65.2331 34.4433C66.4943 35.9775 68.9545 38.0315 73.0894 38.0315C80.1797 38.0315 85.1323 32.2824 85.1323 24.0506C85.1323 15.658 80.4154 10.0188 73.3954 10.0188" fill="#323231"/>
<path fill-rule="evenodd" clip-rule="evenodd" d="M96.4041 33.9451C92.8653 33.9451 91.2541 31.7251 91.2541 29.6621C91.2541 25.008 97.4139 24.4103 102.781 24.4103H103.696V24.9691C103.696 29.3045 100.766 33.9451 96.4041 33.9451M98.138 10.0188C92.2318 10.0188 88.7827 12.939 88.6383 13.0639L88.2748 13.3773L90.4956 16.9872L90.9946 16.5803C91.0237 16.5578 93.8953 14.2585 97.8837 14.2585C101.795 14.2585 103.696 16.2437 103.696 20.327V20.4265H102.832C98.8059 20.4265 86.5559 20.4265 86.5559 29.8671C86.5559 35.2272 91.2279 38.0323 95.8424 38.0323C100.077 38.0323 102.574 35.7149 103.85 33.9803V37.4196H108.293V20.4288C108.293 13.7154 104.687 10.0188 98.138 10.0188" fill="#323231"/>
<path fill-rule="evenodd" clip-rule="evenodd" d="M127.371 10.0187C122.48 10.0187 119.315 12.621 117.68 14.9054V10.6305H113.135V37.4195H117.731V24.5606C117.731 23.2426 117.857 22.158 118.119 21.2425C119.233 17.2212 122.849 14.4117 126.912 14.4117C131.091 14.4117 131.908 16.9916 131.908 21.4489V37.4195H136.505V20.5311C136.505 13.3593 133.602 10.0187 127.371 10.0187" fill="#323231"/>
<path fill-rule="evenodd" clip-rule="evenodd" d="M151.909 33.7925C147.324 33.7925 144.361 29.9478 144.361 23.9997C144.361 18.264 147.528 14.2584 152.063 14.2584C155.845 14.2584 159.661 17.2707 159.661 23.9997C159.661 31.2202 155.657 33.7925 151.909 33.7925V33.7925ZM159.56 13.5336C158.314 12.0167 155.887 10.0187 151.756 10.0187C144.636 10.0187 139.663 15.7679 139.663 23.9997C139.663 32.393 144.379 38.0322 151.399 38.0322C155.825 38.0322 158.374 35.8735 159.661 34.2593V37.4196H164.156V0.427856H159.56V13.5336Z" fill="#323231"/>
<path fill-rule="evenodd" clip-rule="evenodd" d="M177.111 33.9451C173.573 33.9451 171.961 31.7251 171.961 29.6621C171.961 25.008 178.121 24.4103 183.488 24.4103H184.404V24.9691C184.404 29.3045 181.473 33.9451 177.111 33.9451M178.845 10.0188C172.939 10.0188 169.489 12.939 169.345 13.0639L168.981 13.3773L171.203 16.9864L171.702 16.5803C171.731 16.5578 174.603 14.2585 178.591 14.2585C182.502 14.2585 184.404 16.2437 184.404 20.327V20.4265H183.539C179.513 20.4265 167.262 20.4265 167.262 29.8671C167.262 35.2272 171.934 38.0323 176.55 38.0323C180.784 38.0323 183.281 35.7149 184.556 33.9803V37.4196H189V20.4288C189 13.7154 185.394 10.0188 178.845 10.0188" fill="#323231"/>
<mask id="mask1" mask-type="alpha" maskUnits="userSpaceOnUse" x="76" y="48" width="98" height="12">
<path fill-rule="evenodd" clip-rule="evenodd" d="M76.2667 48.0596H173.372V59.9629H76.2667V48.0596Z" fill="white"/>
</mask>
<g mask="url(#mask1)">
<path fill-rule="evenodd" clip-rule="evenodd" d="M87.0259 59.7674H85.3055L83.9546 56.2637H79.1487L77.8779 59.7674H76.2667L80.6896 48.2548H82.33L87.0259 59.7674ZM83.4931 55.0548C82.5499 52.5624 82.0188 51.1494 81.8984 50.8113C81.7779 50.474 81.644 50.0214 81.4959 49.456H81.4585C81.3112 50.2301 81.116 50.949 80.8691 51.608L79.5796 55.0548H83.4931ZM98.9431 59.7673H97.5301V54.5059C97.5301 54.1199 97.5039 53.7871 97.4531 53.514C97.3992 53.238 97.2653 52.9934 97.0476 52.7825C96.8307 52.5708 96.4904 52.4631 96.0296 52.4631C95.4746 52.4631 94.9974 52.6591 94.5927 53.045C94.191 53.4332 93.9898 54.0608 93.9898 54.9293V59.7673H92.5746V54.3473C92.5746 53.6262 92.4489 53.1303 92.1939 52.8648C91.9395 52.597 91.5797 52.4631 91.1137 52.4631C90.5079 52.4631 90.0097 52.6725 89.6185 53.0929C89.2295 53.5118 89.0335 54.2942 89.0335 55.4416V59.7673H87.6213V51.4368H88.8914V52.597H88.9243C89.4891 51.6964 90.3201 51.2461 91.4144 51.2461C92.0256 51.2461 92.529 51.3695 92.9254 51.6141C93.3196 51.855 93.6061 52.2222 93.7864 52.7077C94.4027 51.7345 95.2577 51.2461 96.3513 51.2461C97.2167 51.2461 97.863 51.4795 98.2968 51.9462C98.7284 52.4122 98.9431 53.1124 98.9431 54.0421V59.7673ZM107.855 55.9585H101.61C101.67 56.8808 101.932 57.5854 102.401 58.0701C102.87 58.5586 103.454 58.8024 104.157 58.8024C104.695 58.8024 105.148 58.658 105.516 58.3738C105.88 58.0896 106.161 57.658 106.354 57.0813L107.808 57.2608C107.571 58.1322 107.14 58.7994 106.513 59.2632C105.882 59.7299 105.098 59.9633 104.157 59.9633C102.905 59.9633 101.926 59.5796 101.221 58.8136C100.519 58.0462 100.165 56.999 100.165 55.669C100.165 54.3533 100.509 53.2889 101.192 52.4713C101.876 51.656 102.835 51.2461 104.076 51.2461C104.684 51.2461 105.269 51.38 105.832 51.6485C106.395 51.9141 106.872 52.3688 107.266 53.0099C107.657 53.6502 107.855 54.6345 107.855 55.9585V55.9585ZM106.403 54.7975C106.344 53.9486 106.081 53.3367 105.612 52.9612C105.143 52.5887 104.631 52.4017 104.076 52.4017C103.412 52.4017 102.865 52.6238 102.436 53.0689C102.007 53.514 101.758 54.0899 101.691 54.7975H106.403ZM113.616 51.6941L113.13 52.9994C112.78 52.793 112.436 52.6912 112.101 52.6912C111.571 52.6912 111.171 52.9291 110.901 53.4011C110.627 53.8753 110.491 54.541 110.491 55.3923V59.7673H109.078V51.4368H110.364V52.6912H110.396C110.847 51.7293 111.437 51.2461 112.163 51.2461C112.645 51.2461 113.13 51.3964 113.616 51.6941V51.6941ZM114.045 59.7673H115.46V51.4368H114.045V59.7673ZM114.045 49.8578H115.46V48.2548H114.045V49.8578ZM124.008 56.8853C123.825 57.9474 123.407 58.7269 122.754 59.2205C122.097 59.7165 121.357 59.9633 120.529 59.9633C119.32 59.9633 118.387 59.5661 117.728 58.7732C117.066 57.9789 116.737 56.9287 116.737 55.6204C116.737 54.538 116.927 53.6696 117.307 53.0181C117.684 52.3666 118.162 51.9081 118.733 51.6433C119.301 51.38 119.901 51.2461 120.529 51.2461C121.388 51.2461 122.124 51.4682 122.732 51.9141C123.344 52.3591 123.718 53.0129 123.861 53.8783L122.493 54.09C122.352 53.5297 122.124 53.1094 121.807 52.8251C121.488 52.5439 121.083 52.4018 120.593 52.4018C119.802 52.4018 119.202 52.68 118.795 53.2403C118.387 53.8005 118.18 54.5829 118.18 55.5882C118.18 56.6153 118.382 57.4089 118.784 57.9661C119.183 58.5234 119.759 58.8024 120.515 58.8024C121.121 58.8024 121.599 58.6281 121.947 58.2796C122.295 57.931 122.515 57.4089 122.603 56.7117L124.008 56.8853ZM132.017 59.7673H130.532C130.395 59.504 130.299 59.1615 130.243 58.7381C129.294 59.5557 128.27 59.9633 127.171 59.9633C126.292 59.9633 125.597 59.7434 125.091 59.3036C124.582 58.8637 124.33 58.2825 124.33 57.5615C124.33 56.8696 124.573 56.3011 125.062 55.8545C125.552 55.4065 126.402 55.108 127.61 54.9614L128.929 54.7654C129.423 54.6854 129.827 54.5889 130.146 54.4737C130.146 54.0496 130.136 53.7497 130.109 53.5761C130.082 53.3981 130.004 53.2193 129.875 53.0286C129.747 52.8408 129.543 52.6882 129.259 52.573C128.978 52.4586 128.597 52.4018 128.122 52.4018C127.514 52.4018 127.034 52.5147 126.681 52.7391C126.327 52.9642 126.086 53.3824 125.954 53.9965L124.571 53.814C124.723 52.9613 125.115 52.321 125.743 51.8924C126.37 51.4615 127.236 51.2461 128.334 51.2461C129.334 51.2461 130.068 51.3942 130.535 51.6911C131.004 51.9866 131.294 52.3427 131.4 52.7638C131.508 53.1812 131.561 53.7205 131.561 54.3795V56.2801C131.561 57.4381 131.582 58.213 131.629 58.6094C131.671 59.0036 131.802 59.3896 132.017 59.7673V59.7673ZM130.146 56.1006V55.5882C129.409 55.835 128.506 56.031 127.439 56.1754C126.37 56.3183 125.836 56.7708 125.836 57.5293C125.836 57.913 125.98 58.2257 126.268 58.4748C126.557 58.7246 126.97 58.848 127.509 58.848C128.206 58.848 128.819 58.6416 129.35 58.2234C129.881 57.8083 130.146 57.1007 130.146 56.1006V56.1006ZM137.951 53.7684C137.887 53.3128 137.702 52.9702 137.396 52.7413C137.091 52.5147 136.665 52.4018 136.121 52.4018C135.582 52.4018 135.145 52.4923 134.813 52.6755C134.48 52.8603 134.315 53.1251 134.315 53.4766C134.315 53.8058 134.448 54.0421 134.711 54.1842C134.976 54.3264 135.499 54.4977 136.279 54.7019C137.158 54.9263 137.815 55.1275 138.254 55.2988C138.691 55.4708 139.032 55.7147 139.273 56.0258C139.517 56.3362 139.64 56.7708 139.64 57.3251C139.64 58.0679 139.335 58.6947 138.729 59.2018C138.12 59.7082 137.311 59.9633 136.295 59.9633C135.236 59.9633 134.411 59.7404 133.816 59.2924C133.223 58.8458 132.856 58.1718 132.722 57.2772L134.127 57.0655C134.199 57.6475 134.416 58.0813 134.775 58.3708C135.131 58.658 135.633 58.8024 136.279 58.8024C136.895 58.8024 137.37 58.6708 137.699 58.4134C138.029 58.1539 138.195 57.8375 138.195 57.468C138.195 57.2159 138.118 57.0139 137.968 56.8613C137.815 56.7088 137.625 56.5966 137.396 56.521C137.169 56.444 136.657 56.3093 135.861 56.1163C134.679 55.8321 133.899 55.4888 133.518 55.0871C133.137 54.6854 132.95 54.2029 132.95 53.6427C132.95 52.9455 133.226 52.3718 133.781 51.9223C134.336 51.4712 135.081 51.2461 136.019 51.2461C137.013 51.2461 137.788 51.4421 138.34 51.834C138.892 52.2222 139.222 52.8034 139.332 53.5784L137.951 53.7684ZM145.415 59.7674H146.945V48.2548H145.415V59.7674ZM158.3 59.7674H156.737L150.719 50.7292H150.69V59.7674H149.246V48.2548H150.801L156.815 57.293H156.847V48.2548H158.3V59.7674ZM170.14 56.1163C169.804 57.4089 169.217 58.3738 168.384 59.0088C167.547 59.6469 166.548 59.9633 165.379 59.9633C163.494 59.9633 162.122 59.3739 161.262 58.1935C160.399 57.0117 159.97 55.5912 159.97 53.9321C159.97 52.0958 160.476 50.6566 161.49 49.6169C162.502 48.5794 163.803 48.0596 165.395 48.0596C166.516 48.0596 167.473 48.3438 168.268 48.9145C169.065 49.4853 169.622 50.3215 169.941 51.4211L168.451 51.7742C168.199 50.973 167.815 50.3702 167.303 49.9677C166.791 49.5623 166.148 49.3618 165.379 49.3618C164.122 49.3618 163.17 49.7747 162.522 50.6005C161.873 51.4233 161.549 52.5304 161.549 53.9164C161.549 55.5187 161.889 56.7087 162.573 57.4889C163.256 58.2691 164.147 58.6603 165.245 58.6603C166.145 58.6603 166.877 58.4164 167.44 57.9287C168.003 57.444 168.397 56.7087 168.623 55.7311L170.14 56.1163ZM171.762 59.7672H173.372V58.1568H171.762V59.7672Z" fill="#323231"/>
</g>
</svg>
