<?xml version="1.0" encoding="UTF-8"?>
<svg width="179px" height="60px" viewBox="0 0 179 60" version="1.1" xmlns="http://www.w3.org/2000/svg" xmlns:xlink="http://www.w3.org/1999/xlink">
    <title>2C7DA625-8E90-4FC5-8CC4-0FC7173CF918</title>
    <defs>
        <polygon id="path-1" points="0 0.00908876669 46.5721689 0.00908876669 46.5721689 46.5811877 0 46.5811877"></polygon>
        <polygon id="path-3" points="0.537750491 0.388436925 21.4101835 0.388436925 21.4101835 27.1636308 0.537750491 27.1636308"></polygon>
    </defs>
    <g id="Page-1" stroke="none" stroke-width="1" fill="none" fill-rule="evenodd">
        <g id="ANSAYFA-DAYANIKLI-TÜKETİM" transform="translate(-373.000000, -20.000000)">
            <g id="Header" transform="translate(-1.000000, 0.000000)">
                <g id="Group-17" transform="translate(374.000000, 20.000000)">
                    <g id="Group-3">
                        <mask id="mask-2" fill="white">
                            <use xlink:href="#path-1"></use>
                        </mask>
                        <g id="Clip-2"></g>
                        <path d="M33.567542,10.2904415 C38.6880134,18.3305043 29.8823967,35.706828 23.2147376,44.478187 C23.2147376,44.478187 32.7460573,26.2419262 23.2902443,19.6378885 C23.2902443,19.6378885 17.1364501,15.6605043 8.95656009,21.2885483 L14.6608099,8.63418853 L-6.99135899e-05,23.2950683 L23.2860495,46.5811877 L46.5721689,23.2950683 L33.567542,10.2904415 Z M17.0721296,6.22216968 L23.2860495,0.00894893951 L30.9017368,7.62463629 C25.8973221,4.11287667 19.8805585,5.33916104 17.0721296,6.22216968 L17.0721296,6.22216968 Z" id="Fill-1" fill="#B7152C" mask="url(#mask-2)"></path>
                    </g>
                    <path d="M68.8575371,13.4303561 C73.1741061,13.4303561 76.0744686,17.1360929 76.0744686,22.6525633 C76.0744686,28.1109656 73.0467906,31.9236327 68.7109097,31.9236327 C63.9415837,31.9236327 61.4446255,27.283141 61.4446255,22.7007174 C61.4446255,15.865676 65.2741053,13.4303561 68.8575371,13.4303561 M69.3453416,9.36842105 C65.0452235,9.36842105 62.6176451,11.3639812 61.3959881,12.8751683 L61.3959881,9.948394 L57.1473684,9.948394 L57.1473684,44.9684211 L61.5426156,44.9684211 L61.5426156,32.8435165 C61.5426156,32.7224233 61.5419003,32.6048708 61.5404698,32.4915671 C62.7463912,33.943978 65.0981524,35.8885515 69.052802,35.8885515 C75.8327121,35.8885515 80.5684211,30.4457285 80.5684211,22.6525633 C80.5684211,14.7071464 76.0580177,9.36842105 69.3453416,9.36842105" id="Fill-4" fill="#323231"></path>
                    <path d="M90.8428011,31.7734816 C87.4875002,31.7734816 85.9598489,29.6945676 85.9598489,27.7634471 C85.9598489,23.4045922 91.8002427,22.8449385 96.8888675,22.8449385 L97.7569479,22.8449385 L97.7569479,23.3681692 C97.7569479,27.4279351 94.9789488,31.7734816 90.8428011,31.7734816 M92.4867638,9.36842105 C86.8867942,9.36842105 83.6165992,12.1029493 83.4797205,12.2199233 L83.1357508,12.5134088 L85.2407039,15.8937452 L85.7144601,15.5134048 C85.7414104,15.4916911 88.4647998,13.3385303 92.2456303,13.3385303 C95.95483,13.3385303 97.7569479,15.1968047 97.7569479,19.0205214 L97.7569479,19.1136803 L96.9378034,19.1136803 C93.1208029,19.1136803 81.5052632,19.1136803 81.5052632,27.9539675 C81.5052632,32.9740403 85.9350263,35.6 90.3101799,35.6 C94.3257609,35.6 96.6931239,33.4314294 97.9023372,31.8057019 L97.9023372,35.0270379 L102.115789,35.0270379 L102.115789,19.116482 C102.115789,12.8300089 98.6959499,9.36842105 92.4867638,9.36842105" id="Fill-6" fill="#323231"></path>
                    <path d="M119.925385,9.36842105 C115.415775,9.36842105 112.498563,11.8596763 110.990992,14.046596 L110.990992,9.95489362 L106.8,9.95489362 L106.8,35.6 L111.037888,35.6 L111.037888,23.2905208 C111.037888,22.0273491 111.154439,20.9897438 111.395126,20.1132573 C112.422702,16.2628751 115.756461,13.5739808 119.50263,13.5739808 C123.355005,13.5739808 124.108791,16.0444696 124.108791,20.3108964 L124.108791,35.6 L128.347368,35.6 L128.347368,19.4322617 C128.347368,12.566451 125.670844,9.36842105 119.925385,9.36842105" id="Fill-8" fill="#323231"></path>
                    <path d="M142.868779,31.5862988 C138.483993,31.5862988 135.650691,27.9472003 135.650691,22.3154138 C135.650691,16.8861536 138.679269,13.0933901 143.015415,13.0933901 C146.63197,13.0933901 150.281428,15.9457522 150.281428,22.3154138 C150.281428,29.1510274 146.452429,31.5862988 142.868779,31.5862988 L142.868779,31.5862988 Z M150.184147,12.4072086 C148.993173,10.9718219 146.672742,9.0796889 142.722142,9.0796889 C135.912491,9.0796889 131.157895,14.5231118 131.157895,22.3154138 C131.157895,30.2613809 135.667858,35.6 142.380944,35.6 C146.613372,35.6 149.050397,33.5563265 150.281428,32.0288823 L150.281428,35.0207467 L154.578947,35.0207467 L154.578947,0 L150.184147,0 L150.184147,12.4072086 Z" id="Fill-10" fill="#323231"></path>
                    <g id="Group-14" transform="translate(156.452632, 8.431579)">
                        <mask id="mask-4" fill="white">
                            <use xlink:href="#path-3"></use>
                        </mask>
                        <g id="Clip-13"></g>
                        <path d="M9.99417225,23.2578128 C6.59687049,23.2578128 5.04905119,21.1358161 5.04905119,19.1646757 C5.04905119,14.7154893 10.9645221,14.1442375 16.1172161,14.1442375 L16.997067,14.1442375 L16.997067,14.6783114 C16.997067,18.8222106 14.1829807,23.2578128 9.99417225,23.2578128 M11.6597838,0.388436925 C5.98851646,0.388436925 2.67596768,3.17963471 2.53662804,3.29903277 L2.18827891,3.59860036 L4.32146839,7.04827488 L4.80053821,6.6607674 C4.82854979,6.63860368 7.58517646,4.44082141 11.4155803,4.44082141 C15.1712866,4.44082141 16.997067,6.33760618 16.997067,10.2405643 L16.997067,10.3356538 L16.1667751,10.3356538 C12.3011772,10.3356538 0.537750491,10.3356538 0.537750491,19.3591444 C0.537750491,24.4832516 5.0239126,27.1636308 9.45548804,27.1636308 C13.5214765,27.1636308 15.9189803,24.9501195 17.1435891,23.2907009 L17.1435891,26.5787948 L21.4106863,26.5787948 L21.4106863,10.3385137 C21.4106863,3.92176158 17.9473059,0.388436925 11.6597838,0.388436925" id="Fill-12" fill="#323231" mask="url(#mask-4)"></path>
                    </g>
                    <path d="M90.6161262,55.8336905 L89.2182669,55.8336905 C89.0893962,55.5859022 88.998553,55.2618713 88.9457371,54.8623039 C88.0520931,55.6339067 87.0880279,56.0186492 86.0535416,56.0186492 C85.2260934,56.0186492 84.5718812,55.8111001 84.0951302,55.3960017 C83.6162666,54.9809034 83.3789474,54.4323806 83.3789474,53.7518453 C83.3789474,53.0988419 83.6085202,52.5630262 84.067666,52.1408684 C84.5289243,51.7180046 85.3296125,51.4370367 86.4676178,51.2979646 L87.7091422,51.1130059 C88.1732174,51.0374693 88.5541957,50.9464018 88.8548939,50.8376855 C88.8548939,50.4381181 88.8443307,50.1550323 88.8196833,49.9905461 C88.7943317,49.8232361 88.7210938,49.6538082 88.5999694,49.474497 C88.4788451,49.2973036 88.2865954,49.152584 88.0196994,49.0438678 C87.754916,48.9351515 87.3964724,48.8822053 86.9492983,48.8822053 C86.3767746,48.8822053 85.924671,48.9888037 85.5915791,49.2005886 C85.2591914,49.4130794 85.0317311,49.8077052 84.9084942,50.3872897 L83.6057034,50.215744 C83.7500667,49.4109615 84.1183692,48.8059628 84.7084982,48.4014537 C85.2993314,47.9948267 86.1141038,47.7915133 87.1485901,47.7915133 C88.0901205,47.7915133 88.7816559,47.9312913 89.2210837,48.2122592 C89.6626242,48.4904033 89.9344497,48.8264353 90.0358561,49.2238849 C90.1365583,49.6185107 90.1872615,50.1267944 90.1872615,50.7487359 L90.1872615,52.5425537 C90.1872615,53.6353636 90.2069795,54.3667273 90.2499363,54.7408806 C90.2907806,55.112916 90.4140176,55.4771859 90.6161262,55.8336905 L90.6161262,55.8336905 Z M88.8548939,52.3731258 L88.8548939,51.8902563 C88.1605416,52.1225137 87.3105587,52.3074725 86.3056492,52.4437208 C85.2993314,52.5778512 84.7965246,53.0056566 84.7965246,53.7214894 C84.7965246,54.0836415 84.9331416,54.3787284 85.2028545,54.6145156 C85.4760884,54.8495968 85.8641088,54.9660785 86.3718451,54.9660785 C87.0274658,54.9660785 87.6056232,54.7712364 88.1056131,54.3766106 C88.6048989,53.9841027 88.8548939,53.3169803 88.8548939,52.3731258 L88.8548939,52.3731258 Z M91.8245527,55.8336905 L93.1569203,55.8336905 L93.1569203,44.9684211 L91.8245527,44.9684211 L91.8245527,55.8336905 Z M101.139155,55.8336905 L99.9483334,55.8336905 L99.9483334,54.6773451 L99.9131229,54.6773451 C99.3096138,55.5703713 98.489912,56.0186492 97.449792,56.0186492 C96.9026198,56.0186492 96.3977004,55.8922843 95.9308083,55.6367305 C95.4639163,55.3832946 95.1533591,55.0317318 94.9998411,54.5841598 C94.842802,54.1387056 94.7674514,53.559121 94.7674514,52.846112 L94.7674514,47.9715304 L96.0970022,47.9715304 L96.0970022,52.327945 C96.0970022,53.0254232 96.1301001,53.5238235 96.1955918,53.825264 C96.2639003,54.1259985 96.4385446,54.3744927 96.7181165,54.5686289 C96.9983926,54.7662947 97.3335971,54.8623039 97.7223217,54.8623039 C98.2272412,54.8623039 98.6990627,54.6872284 99.1427158,54.3413131 C99.5870731,53.9918681 99.8096038,53.2689758 99.8096038,52.1733421 L99.8096038,47.9715304 L101.139155,47.9715304 L101.139155,55.8336905 Z M98.6582184,46.5624551 L100.018755,46.5624551 L100.018755,45.0418398 L98.6582184,45.0418398 L98.6582184,46.5624551 Z M95.9160199,46.5624551 L97.2835981,46.5624551 L97.2835981,45.0418398 L95.9160199,45.0418398 L95.9160199,46.5624551 Z M113.423415,55.8336905 L112.093865,55.8336905 L112.093865,50.8680414 C112.093865,50.5037714 112.068513,50.1896239 112.020627,49.9319523 C111.969923,49.6714569 111.844574,49.4413173 111.639648,49.2415336 C111.434723,49.0417499 111.114307,48.9400932 110.680513,48.9400932 C110.157988,48.9400932 109.708701,49.125052 109.327723,49.4893219 C108.949561,49.8564157 108.760129,50.4480014 108.760129,51.2676088 L108.760129,55.8336905 L107.427761,55.8336905 L107.427761,50.7183801 C107.427761,50.0385507 107.309453,49.5698002 107.069317,49.319894 C106.829181,49.0671641 106.49116,48.9400932 106.052436,48.9400932 C105.482025,48.9400932 105.013021,49.137759 104.644014,49.5352086 C104.278528,49.9291285 104.094025,50.6682577 104.094025,51.7504783 L104.094025,55.8336905 L102.764474,55.8336905 L102.764474,47.9715304 L103.960225,47.9715304 L103.960225,49.0671641 L103.99121,49.0671641 C104.523594,48.2164949 105.305268,47.7915133 106.334825,47.7915133 C106.91087,47.7915133 107.384804,47.9079949 107.75874,48.1388404 C108.129155,48.3661562 108.399572,48.7127774 108.567879,49.1709387 C109.148853,48.2524983 109.953767,47.7915133 110.983323,47.7915133 C111.798096,47.7915133 112.406534,48.0117695 112.814977,48.452282 C113.222011,48.8920886 113.423415,49.5528574 113.423415,50.4303527 L113.423415,55.8336905 Z M114.995919,55.8336905 L116.328287,55.8336905 L116.328287,47.9715304 L114.995919,47.9715304 L114.995919,55.8336905 Z M114.995919,46.4812709 L116.328287,46.4812709 L116.328287,44.9684211 L114.995919,44.9684211 L114.995919,46.4812709 Z M124.36052,55.8336905 L123.023223,55.8336905 L123.023223,51.0530002 C123.023223,50.2482177 122.87886,49.6940473 122.591541,49.3926068 C122.303519,49.0918723 121.902823,48.9400932 121.390157,48.9400932 C120.99439,48.9400932 120.622567,49.0368083 120.269757,49.2309444 C119.916243,49.4236686 119.666952,49.6940473 119.517659,50.0456102 C119.371183,50.397173 119.297945,50.8927496 119.297945,51.5358696 L119.297945,55.8336905 L117.966282,55.8336905 L117.966282,47.9715304 L119.164849,47.9715304 L119.164849,49.081989 L119.195131,49.081989 C119.474702,48.6520658 119.821174,48.3308587 120.232434,48.1155441 C120.643693,47.9009354 121.11974,47.7915133 121.662687,47.7915133 C122.076763,47.7915133 122.48591,47.8677558 122.889423,48.0145933 C123.295048,48.1635487 123.611239,48.3866287 123.840812,48.6824216 C124.070385,48.9782145 124.214044,49.2944798 124.272494,49.6305118 C124.332351,49.9672498 124.36052,50.4204694 124.36052,50.9944063 L124.36052,55.8336905 Z M132.402612,47.9715304 L129.401968,55.9678209 C129.397039,55.9784101 129.392109,55.993235 129.38718,56.0186492 C129.101974,56.9088516 128.76677,57.6296261 128.385791,58.1866203 C128.004813,58.7429085 127.459049,59.0210526 126.754838,59.0210526 C126.517519,59.0210526 126.230201,58.9702243 125.890067,58.8720973 L125.755562,57.6119773 C126.014008,57.6903377 126.265411,57.7312828 126.510477,57.7312828 C127.005537,57.7312828 127.345671,57.5943286 127.535104,57.3239499 C127.723833,57.0507475 127.938617,56.5594066 128.173824,55.8485154 L125.195714,47.9715304 L126.629489,47.9715304 L128.476635,53.1221383 C128.585083,53.4384037 128.700574,53.8457365 128.824515,54.343431 L128.854796,54.343431 C128.978737,53.7723178 129.134368,53.2259128 129.326618,52.7070399 L131.050527,47.9715304 L132.402612,47.9715304 Z M139.48416,55.8336905 L138.292635,55.8336905 L138.292635,54.6773451 L138.257424,54.6773451 C137.65462,55.5703713 136.834213,56.0186492 135.794093,56.0186492 C135.246921,56.0186492 134.742002,55.8922843 134.27511,55.6367305 C133.808218,55.3832946 133.498365,55.0317318 133.344143,54.5841598 C133.187808,54.1387056 133.112457,53.559121 133.112457,52.846112 L133.112457,47.9715304 L134.441304,47.9715304 L134.441304,52.327945 C134.441304,53.0254232 134.474402,53.5238235 134.540598,53.825264 C134.608906,54.1259985 134.782846,54.3744927 135.062418,54.5686289 C135.342694,54.7662947 135.677899,54.8623039 136.067327,54.8623039 C136.571543,54.8623039 137.044068,54.6872284 137.487722,54.3413131 C137.931375,53.9918681 138.153905,53.2689758 138.153905,52.1733421 L138.153905,47.9715304 L139.48416,47.9715304 L139.48416,55.8336905 Z M151.768421,55.8336905 L150.438166,55.8336905 L150.438166,50.8680414 C150.438166,50.5037714 150.412814,50.1896239 150.365632,49.9319523 C150.314225,49.6714569 150.188875,49.4413173 149.98395,49.2415336 C149.779729,49.0417499 149.459312,48.9400932 149.024814,48.9400932 C148.502289,48.9400932 148.053707,49.125052 147.672024,49.4893219 C147.293863,49.8564157 147.105134,50.4480014 147.105134,51.2676088 L147.105134,55.8336905 L145.772062,55.8336905 L145.772062,50.7183801 C145.772062,50.0385507 145.653755,49.5698002 145.413619,49.319894 C145.174187,49.0671641 144.836166,48.9400932 144.396738,48.9400932 C143.827031,48.9400932 143.358026,49.137759 142.98902,49.5352086 C142.623534,49.9291285 142.439031,50.6682577 142.439031,51.7504783 L142.439031,55.8336905 L141.108776,55.8336905 L141.108776,47.9715304 L142.304526,47.9715304 L142.304526,49.0671641 L142.335512,49.0671641 C142.867895,48.2164949 143.650274,47.7915133 144.679127,47.7915133 C145.255171,47.7915133 145.72981,47.9079949 146.103042,48.1388404 C146.473457,48.3661562 146.743874,48.7127774 146.912885,49.1709387 C147.493859,48.2524983 148.298068,47.7915133 149.327625,47.7915133 C150.142397,47.7915133 150.75154,48.0117695 151.159983,48.452282 C151.566312,48.8920886 151.768421,49.5528574 151.768421,50.4303527 L151.768421,55.8336905 Z" id="Fill-15" fill="#323231"></path>
                </g>
            </g>
        </g>
    </g>
</svg>