<svg width="189" height="53" viewBox="0 0 189 53" fill="none" xmlns="http://www.w3.org/2000/svg">
<path fill-rule="evenodd" clip-rule="evenodd" d="M0.00012207 24.9704L0.0229906 24.9475L25.6654 19.8979L20.5874 45.5551L20.5861 45.5564L0.00012207 24.9704ZM6.2482 18.7224L20.5861 4.38379L30.0438 13.8421C29.4307 13.6282 28.6476 13.6208 27.7341 13.8291L6.2482 18.7224ZM31.3585 15.1567L41.1721 24.9704L26.8107 39.3312L31.3931 17.4355C31.5865 16.5084 31.5649 15.7463 31.3585 15.1567V15.1567Z" fill="#075394"/>
<mask id="mask0" mask-type="alpha" maskUnits="userSpaceOnUse" x="85" y="40" width="61" height="13">
<path fill-rule="evenodd" clip-rule="evenodd" d="M85.3031 40.5997H145.327V52.9029H85.3031V40.5997Z" fill="white"/>
</mask>
<g mask="url(#mask0)">
<path fill-rule="evenodd" clip-rule="evenodd" d="M91.655 50.1124H90.4281C90.315 49.8949 90.2353 49.6112 90.1889 49.2619C89.4046 49.9375 88.5591 50.2743 87.6505 50.2743C86.9243 50.2743 86.3507 50.0926 85.9323 49.7292C85.5114 49.3658 85.3031 48.8855 85.3031 48.2897C85.3031 47.718 85.5046 47.2483 85.9076 46.8793C86.313 46.5091 87.0151 46.2625 88.0139 46.1407L89.1036 45.9794C89.5109 45.9133 89.8453 45.8335 90.1092 45.7383C90.1092 45.3879 90.1005 45.1401 90.0783 44.9967C90.056 44.8496 89.9918 44.7012 89.8855 44.5442C89.7791 44.3891 89.6104 44.263 89.3762 44.1678C89.1438 44.0726 88.8292 44.0257 88.4367 44.0257C87.9342 44.0257 87.538 44.1196 87.2457 44.305C86.9533 44.4911 86.7537 44.8366 86.6455 45.344L85.5021 45.1932C85.6288 44.4886 85.9521 43.9595 86.47 43.6054C86.9886 43.2488 87.7037 43.0714 88.6122 43.0714C89.438 43.0714 90.0449 43.1931 90.4306 43.4391C90.8181 43.6833 91.0573 43.9775 91.1457 44.3254C91.2341 44.6703 91.2786 45.1159 91.2786 45.6605V47.231C91.2786 48.1877 91.2959 48.8274 91.3336 49.1556C91.3694 49.4814 91.4776 49.7997 91.655 50.1124V50.1124ZM90.1092 47.0827V46.6593C89.5004 46.8633 88.7538 47.0252 87.8724 47.1445C86.9886 47.262 86.5479 47.6359 86.5479 48.2632C86.5479 48.5797 86.6678 48.8387 86.9045 49.0445C87.1437 49.2503 87.4849 49.3529 87.9299 49.3529C88.5053 49.3529 89.0128 49.1823 89.4516 48.8368C89.8898 48.4932 90.1092 47.9091 90.1092 47.0827V47.0827ZM92.7162 50.1124H93.8855V40.5997H92.7162V50.1124ZM100.891 50.1124H99.8456V49.1H99.8147C99.2856 49.8819 98.5655 50.2743 97.6527 50.2743C97.1724 50.2743 96.7293 50.1631 96.3195 49.9394C95.9103 49.7181 95.6371 49.4103 95.5024 49.0178C95.3652 48.6284 95.299 48.121 95.299 47.4967V43.2284H96.466V47.0425C96.466 47.6537 96.4944 48.0901 96.5525 48.3534C96.6124 48.6173 96.7651 48.8342 97.0105 49.0048C97.2565 49.1773 97.5507 49.262 97.8925 49.262C98.335 49.262 98.7497 49.1087 99.1385 48.8058C99.5285 48.4999 99.7238 47.8664 99.7238 46.9071V43.2284H100.891V50.1124ZM98.7139 41.9953H99.908V40.664H98.7139V41.9953ZM96.3066 41.9953H97.5068V40.664H96.3066V41.9953ZM111.673 50.1124H110.505V45.7649C110.505 45.4454 110.483 45.171 110.442 44.9454C110.397 44.7173 110.287 44.5152 110.107 44.3403C109.927 44.1654 109.646 44.077 109.265 44.077C108.806 44.077 108.412 44.2383 108.078 44.5578C107.746 44.8786 107.58 45.3972 107.58 46.1141V50.1124H106.41V45.6339C106.41 45.0381 106.306 44.6283 106.096 44.4089C105.885 44.1876 105.589 44.077 105.204 44.077C104.702 44.077 104.291 44.25 103.968 44.5974C103.646 44.9429 103.485 45.59 103.485 46.5375V50.1124H102.317V43.2284H103.367V44.1876H103.394C103.861 43.4435 104.547 43.0714 105.452 43.0714C105.957 43.0714 106.372 43.1734 106.701 43.3749C107.026 43.5745 107.263 43.878 107.411 44.2791C107.921 43.475 108.627 43.0714 109.531 43.0714C110.247 43.0714 110.78 43.2642 111.138 43.6499C111.496 44.0349 111.673 44.6135 111.673 45.3817V50.1124ZM113.053 50.1124H114.222V43.2284H113.053V50.1124ZM113.053 41.9243H114.222V40.5997H113.053V41.9243ZM121.272 50.1124H120.098V45.9269C120.098 45.2223 119.971 44.7371 119.719 44.4732C119.466 44.2099 119.114 44.077 118.665 44.077C118.317 44.077 117.991 44.161 117.681 44.3316C117.372 44.5004 117.152 44.7371 117.022 45.0449C116.893 45.3527 116.829 45.7866 116.829 46.349V50.1124H115.659V43.2284H116.711V44.2012H116.738C116.983 43.8242 117.287 43.543 117.648 43.3545C118.009 43.1672 118.428 43.0714 118.904 43.0714C119.267 43.0714 119.626 43.1381 119.98 43.2667C120.337 43.3971 120.614 43.5918 120.815 43.8508C121.017 44.1104 121.143 44.3866 121.194 44.6814C121.247 44.9763 121.272 45.3724 121.272 45.8756V50.1124ZM128.331 43.2284L125.697 50.2292C125.692 50.2385 125.688 50.2521 125.684 50.2743C125.433 51.0531 125.139 51.6848 124.804 52.1718C124.47 52.6595 123.991 52.903 123.374 52.903C123.165 52.903 122.913 52.8585 122.614 52.7726L122.497 51.6693C122.723 51.7379 122.944 51.7738 123.159 51.7738C123.593 51.7738 123.892 51.6539 124.058 51.4165C124.224 51.178 124.412 50.7478 124.618 50.1254L122.005 43.2284H123.263L124.884 47.7378C124.979 48.0147 125.081 48.3719 125.189 48.8077H125.217C125.325 48.307 125.462 47.8293 125.631 47.3744L127.143 43.2284H128.331ZM134.545 50.1124H133.499V49.1H133.468C132.939 49.8819 132.219 50.2743 131.307 50.2743C130.826 50.2743 130.383 50.1631 129.974 49.9394C129.564 49.7181 129.292 49.4103 129.157 49.0178C129.019 48.6284 128.953 48.121 128.953 47.4967V43.2284H130.12V47.0425C130.12 47.6537 130.148 48.0901 130.206 48.3534C130.266 48.6173 130.419 48.8342 130.665 49.0048C130.911 49.1773 131.205 49.262 131.546 49.262C131.989 49.262 132.404 49.1087 132.794 48.8058C133.183 48.4999 133.378 47.8664 133.378 46.9071V43.2284H134.545V50.1124ZM145.327 50.1124H144.159V45.7649C144.159 45.4454 144.138 45.171 144.096 44.9454C144.05 44.7173 143.94 44.5152 143.761 44.3403C143.581 44.1654 143.3 44.077 142.919 44.077C142.461 44.077 142.066 44.2383 141.731 44.5578C141.4 44.8786 141.234 45.3972 141.234 46.1141V50.1124H140.064V45.6339C140.064 45.0381 139.96 44.6283 139.749 44.4089C139.54 44.1876 139.242 44.077 138.857 44.077C138.357 44.077 137.945 44.25 137.621 44.5974C137.3 44.9429 137.139 45.59 137.139 46.5375V50.1124H135.971V43.2284H137.021V44.1876H137.048C137.515 43.4435 138.202 43.0714 139.105 43.0714C139.61 43.0714 140.027 43.1734 140.354 43.3749C140.68 43.5745 140.917 43.878 141.065 44.2791C141.575 43.475 142.281 43.0714 143.185 43.0714C143.9 43.0714 144.434 43.2642 144.793 43.6499C145.149 44.0349 145.327 44.6135 145.327 45.3817V50.1124Z" fill="#313130"/>
</g>
<mask id="mask1" mask-type="alpha" maskUnits="userSpaceOnUse" x="170" y="0" width="20" height="32">
<path fill-rule="evenodd" clip-rule="evenodd" d="M170.922 0.795654H189V31.3636H170.922V0.795654Z" fill="white"/>
</mask>
<g mask="url(#mask1)">
<path fill-rule="evenodd" clip-rule="evenodd" d="M189 31.3636H185.227V17.3928C185.227 15.5849 184.837 14.2326 184.061 13.3284C183.285 12.4247 182.125 11.9692 180.581 11.9692C179.05 11.9692 177.683 12.5026 176.481 13.5632C175.278 14.6312 174.68 16.5318 174.68 19.2717V31.3636H170.922V0.795166H174.68V11.7628C176.46 9.7485 178.68 8.73858 181.349 8.73858C182.78 8.73858 184.153 9.02969 185.456 9.61376C186.766 10.1972 187.684 11.094 188.21 12.3036C188.737 13.5138 189 15.1937 189 17.3501V31.3636Z" fill="#313130"/>
</g>
<path fill-rule="evenodd" clip-rule="evenodd" d="M168.844 23.7125C168.36 26.5315 167.249 28.602 165.513 29.9117C163.769 31.2282 161.805 31.8833 159.606 31.8833C156.396 31.8833 153.919 30.8301 152.168 28.7231C150.41 26.6162 149.535 23.8268 149.535 20.3533C149.535 17.478 150.04 15.172 151.051 13.4426C152.054 11.7133 153.321 10.4957 154.837 9.79172C156.345 9.09392 157.94 8.73792 159.606 8.73792C161.89 8.73792 163.84 9.32879 165.456 10.5105C167.079 11.6917 168.075 13.4284 168.452 15.727L164.822 16.2889C164.445 14.8018 163.84 13.6843 163.001 12.9303C162.153 12.183 161.079 11.8054 159.776 11.8054C157.677 11.8054 156.083 12.5458 155.001 14.0335C153.919 15.5206 153.371 17.5985 153.371 20.268C153.371 22.9937 153.905 25.1006 154.973 26.5809C156.033 28.0612 157.563 28.801 159.57 28.801C161.179 28.801 162.445 28.3387 163.371 27.4135C164.296 26.4882 164.88 25.1007 165.115 23.2502L168.844 23.7125Z" fill="#313130"/>
<path fill-rule="evenodd" clip-rule="evenodd" d="M143.499 18.1685C143.343 15.9126 142.645 14.2895 141.4 13.2926C140.154 12.3037 138.794 11.8055 137.321 11.8055C135.556 11.8055 134.104 12.3957 132.965 13.5775C131.827 14.7592 131.165 16.289 130.987 18.1685H143.499ZM147.356 21.2496H130.774C130.93 23.6984 131.628 25.5705 132.873 26.8586C134.119 28.1534 135.67 28.8011 137.535 28.8011C138.965 28.8011 140.168 28.4173 141.143 27.6627C142.111 26.9086 142.859 25.7621 143.371 24.2324L147.228 24.7089C146.602 27.0217 145.456 28.7937 143.791 30.0255C142.118 31.2635 140.033 31.8828 137.535 31.8828C134.211 31.8828 131.614 30.8655 129.741 28.8296C127.877 26.7943 126.937 24.0117 126.937 20.4813C126.937 16.9868 127.848 14.1616 129.663 11.9903C131.478 9.82707 134.026 8.73804 137.321 8.73804C138.937 8.73804 140.488 9.09343 141.983 9.80544C143.477 10.51 144.745 11.7196 145.791 13.4211C146.83 15.1221 147.356 17.734 147.356 21.2496V21.2496Z" fill="#313130"/>
<path fill-rule="evenodd" clip-rule="evenodd" d="M126.048 31.3206C124.937 31.5413 123.998 31.6556 123.236 31.6556C121.592 31.6556 120.396 31.3633 119.649 30.7872C118.894 30.2106 118.439 29.4776 118.275 28.5882C118.104 27.6988 118.02 26.4669 118.02 24.8797V12.1401H115.293V9.24324H118.02V3.7344L121.777 1.46423V9.24324H125.527V12.1401H121.777V25.0862C121.777 26.1968 121.891 26.9861 122.119 27.4565C122.347 27.9188 122.93 28.1537 123.862 28.1537C124.404 28.1537 124.959 28.0968 125.527 27.9831L126.048 31.3206Z" fill="#313130"/>
<path fill-rule="evenodd" clip-rule="evenodd" d="M59.5137 28.8012C61.2647 28.8012 62.7165 28.0756 63.8624 26.6164C65.0083 25.1645 65.5775 23.0007 65.5775 20.1254C65.5775 17.414 65.0293 15.3286 63.9193 13.8693C62.816 12.4101 61.3994 11.6777 59.6775 11.6777C57.898 11.6777 56.4388 12.496 55.2929 14.1184C54.1402 15.7483 53.5703 17.8553 53.5703 20.4388C53.5703 23.1787 54.1186 25.2572 55.2144 26.6738C56.3183 28.0898 57.7485 28.8012 59.5137 28.8012V28.8012ZM53.6914 12.0974C55.1006 9.86243 57.2076 8.73816 60.0118 8.73816C62.9155 8.73816 65.2141 9.79135 66.894 11.8977C68.5739 14.0053 69.4138 16.7446 69.4138 20.1254C69.4138 23.7269 68.4886 26.588 66.6233 28.7018C64.7592 30.823 62.4742 31.883 59.7627 31.883C57.3856 31.883 55.4783 30.9367 54.0474 29.0504H53.9479V39.8684H50.1901V9.24312H53.6135V12.0974H53.6914Z" fill="#313130"/>
<path fill-rule="evenodd" clip-rule="evenodd" d="M80.0303 28.4975C77.1063 28.4975 75.7749 26.6625 75.7749 24.9585C75.7749 21.1122 80.8647 20.6184 85.2994 20.6184H86.0559V21.0801C86.0559 24.6624 83.6343 28.4975 80.0303 28.4975M81.463 8.72754C76.5827 8.72754 73.7328 11.1405 73.6135 11.2431L73.3131 11.502L75.1482 14.4848L75.5611 14.1492C75.5845 14.1301 77.9573 12.2307 81.2528 12.2307C84.4847 12.2307 86.0559 13.8705 86.0559 17.2445V17.3267H85.3414C82.0149 17.3267 71.8928 17.3267 71.8928 25.1274C71.8928 29.5564 75.7533 31.8742 79.5661 31.8742C83.065 31.8742 85.1281 29.96 86.1826 28.5261V31.368H89.8539V17.3286C89.8539 11.7814 86.8742 8.72754 81.463 8.72754" fill="#313130"/>
<path fill-rule="evenodd" clip-rule="evenodd" d="M105.985 8.72253C101.944 8.72253 99.3286 10.8728 97.9775 12.7604V9.22811H94.2215V31.3636H98.0195V20.7384C98.0195 19.6494 98.124 18.7532 98.3397 17.9966C99.2606 14.6739 102.248 12.3524 105.606 12.3524C109.059 12.3524 109.734 14.4848 109.734 18.1672V31.3636H113.532V17.4089C113.532 11.4828 111.134 8.72253 105.985 8.72253" fill="#313130"/>
</svg>
