<svg width="189" height="60" viewBox="0 0 189 60" fill="none" xmlns="http://www.w3.org/2000/svg">
<g clip-path="url(#clip0)">
<path d="M22.0081 46.4615L22.4373 46.9206V31.6797L11.029 20.0219C10.8992 19.8821 10.8294 19.7224 10.8294 19.5228C10.8294 19.3232 10.8992 19.1535 11.029 19.0238L11.4881 18.5547C11.6179 18.4149 11.7875 18.355 11.9772 18.355C12.1668 18.355 12.3365 18.4249 12.4663 18.5547L22.4273 28.7353V15.8099C22.4273 15.6202 22.4971 15.4506 22.6369 15.3108C22.7766 15.1711 22.9363 15.1012 23.126 15.1012H23.7747C23.9644 15.1012 24.124 15.1711 24.2638 15.3108C24.4035 15.4506 24.4734 15.6202 24.4734 15.8099V20.0318L31.3603 12.9952C31.49 12.8555 31.6597 12.7856 31.8493 12.7856C32.049 12.7856 32.2087 12.8555 32.3384 12.9952L32.7975 13.4644C32.9273 13.6041 32.9971 13.7638 32.9971 13.9634C32.9971 14.163 32.9273 14.3327 32.7975 14.4625L24.4634 22.9762V37.3988L37.4786 24.1041C37.6084 23.9644 37.778 23.8945 37.9677 23.8945C38.1673 23.8945 38.327 23.9644 38.4567 24.1041L38.9159 24.5732C39.0456 24.7129 39.1155 24.8726 39.1155 25.0722C39.1155 25.2719 39.0456 25.4415 38.9159 25.5713L24.4534 40.3432V46.9106L24.8926 46.4615L46.9007 23.9743L23.4553 0L0 23.9743L22.0081 46.4615Z" fill="#38AA34"/>
<path d="M155.464 56.0532C155.075 56.1331 154.735 56.173 154.466 56.173C153.887 56.173 153.458 56.0732 153.188 55.8636C152.919 55.654 152.759 55.4045 152.699 55.0851C152.639 54.7657 152.609 54.3365 152.609 53.7676V49.2462H151.641V48.2182H152.609V46.2619L153.937 45.4534V48.2082H155.264V49.2362H153.937V53.8275C153.937 54.2267 153.977 54.5062 154.057 54.6659C154.136 54.8256 154.346 54.9154 154.675 54.9154C154.865 54.9154 155.065 54.8955 155.264 54.8555L155.464 56.0532ZM149.835 51.3821C149.785 50.5837 149.535 50.0048 149.086 49.6554C148.647 49.3061 148.158 49.1264 147.639 49.1264C147.01 49.1264 146.501 49.336 146.092 49.7552C145.692 50.1744 145.453 50.7134 145.393 51.3821H149.835V51.3821ZM151.202 52.4801H145.323C145.383 53.3484 145.623 54.0071 146.072 54.4663C146.511 54.9254 147.06 55.155 147.729 55.155C148.238 55.155 148.667 55.0152 149.006 54.7557C149.346 54.4862 149.615 54.077 149.795 53.538L151.162 53.7077C150.942 54.5262 150.533 55.155 149.944 55.5941C149.356 56.0333 148.617 56.2529 147.729 56.2529C146.551 56.2529 145.633 55.8936 144.964 55.1649C144.305 54.4463 143.966 53.4582 143.966 52.2006C143.966 50.9629 144.285 49.9549 144.934 49.1863C145.583 48.4178 146.481 48.0385 147.649 48.0385C148.218 48.0385 148.777 48.1683 149.306 48.4178C149.835 48.6673 150.284 49.0965 150.653 49.6954C151.012 50.3042 151.202 51.2324 151.202 52.4801ZM143.976 48.4577L143.517 49.6854C143.187 49.4858 142.868 49.3959 142.548 49.3959C142.049 49.3959 141.67 49.6255 141.421 50.0647C141.161 50.5138 141.031 51.1326 141.031 51.9411V56.0632H139.704V48.2182H140.912V49.3959H140.942C141.361 48.4877 141.92 48.0385 142.608 48.0385C143.068 48.0385 143.527 48.1782 143.976 48.4577ZM136.779 52.6098V52.1307C136.091 52.3603 135.232 52.5499 134.234 52.6797C133.226 52.8094 132.727 53.2386 132.727 53.9572C132.727 54.3166 132.867 54.616 133.136 54.8455C133.406 55.0851 133.795 55.1949 134.304 55.1949C134.963 55.1949 135.542 55.0052 136.041 54.606C136.53 54.2167 136.779 53.558 136.779 52.6098ZM138.536 56.0632H137.139C137.009 55.8137 136.919 55.4943 136.869 55.0951C135.971 55.8636 135.013 56.2529 133.975 56.2529C133.146 56.2529 132.498 56.0433 132.019 55.634C131.539 55.2248 131.3 54.6759 131.3 53.9972C131.3 53.3484 131.529 52.8094 131.989 52.3902C132.448 51.971 133.246 51.6916 134.394 51.5518L135.632 51.3722C136.101 51.2923 136.48 51.2025 136.779 51.0927C136.779 50.6935 136.769 50.414 136.74 50.2443C136.72 50.0746 136.64 49.905 136.52 49.7253C136.4 49.5456 136.211 49.4059 135.941 49.2961C135.682 49.1863 135.322 49.1364 134.873 49.1364C134.304 49.1364 133.845 49.2462 133.516 49.4558C133.186 49.6654 132.957 50.0647 132.827 50.6436L131.529 50.4739C131.669 49.6754 132.039 49.0666 132.627 48.6673C133.216 48.2581 134.035 48.0585 135.063 48.0585C136.001 48.0585 136.7 48.1982 137.139 48.4777C137.578 48.7571 137.847 49.0865 137.957 49.4858C138.057 49.885 138.107 50.384 138.107 51.0029V52.7895C138.107 53.8774 138.127 54.606 138.167 54.9853C138.217 55.3446 138.337 55.7039 138.536 56.0632ZM131 53.3484C130.831 54.3465 130.432 55.0851 129.823 55.5442C129.204 56.0133 128.505 56.2429 127.727 56.2429C126.589 56.2429 125.711 55.8736 125.092 55.125C124.473 54.3764 124.154 53.3883 124.154 52.1607C124.154 51.1426 124.333 50.3242 124.692 49.7053C125.052 49.0865 125.501 48.6573 126.04 48.4078C126.579 48.1583 127.138 48.0385 127.727 48.0385C128.535 48.0385 129.224 48.2481 129.803 48.6673C130.382 49.0865 130.731 49.7053 130.861 50.5138L129.573 50.7134C129.443 50.1844 129.224 49.7852 128.924 49.5257C128.625 49.2562 128.246 49.1264 127.787 49.1264C127.038 49.1264 126.479 49.3859 126.09 49.9149C125.711 50.4439 125.511 51.1825 125.511 52.1307C125.511 53.0989 125.701 53.8475 126.08 54.3665C126.459 54.8955 126.998 55.155 127.707 55.155C128.276 55.155 128.725 54.9953 129.054 54.6659C129.384 54.3365 129.593 53.8475 129.673 53.1887L131 53.3484ZM122.946 46.731H121.618V45.2239H122.946V46.731ZM122.946 56.0632H121.618V48.2182H122.946V56.0632ZM120.88 56.0532C120.49 56.1331 120.151 56.173 119.882 56.173C119.303 56.173 118.874 56.0732 118.614 55.8636C118.345 55.654 118.185 55.4045 118.125 55.0851C118.065 54.7657 118.035 54.3365 118.035 53.7676V49.2462H117.067V48.2182H118.035V46.2619L119.373 45.4534V48.2082H120.7V49.2362H119.373V53.8275C119.373 54.2267 119.413 54.5062 119.492 54.6659C119.572 54.8256 119.782 54.9154 120.111 54.9154C120.301 54.9154 120.5 54.8955 120.7 54.8555L120.88 56.0532ZM110.27 57.5205C110.27 57.9796 110.17 58.3389 109.961 58.5984C109.751 58.8579 109.452 59.0675 109.062 59.2472L108.733 58.7781C108.982 58.6683 109.182 58.5485 109.322 58.4088C109.461 58.269 109.541 58.1093 109.561 57.9297H108.863V56.7619H110.28V57.5205H110.27ZM111.168 50.414C111.108 49.9848 110.939 49.6654 110.649 49.4458C110.36 49.2263 109.961 49.1264 109.452 49.1264C108.942 49.1264 108.533 49.2163 108.224 49.3859C107.914 49.5656 107.755 49.8052 107.755 50.1445C107.755 50.4539 107.885 50.6735 108.124 50.8132C108.374 50.943 108.863 51.1127 109.601 51.3023C110.43 51.5119 111.048 51.7015 111.458 51.8612C111.867 52.0209 112.186 52.2505 112.416 52.5499C112.645 52.8394 112.765 53.2486 112.765 53.7776C112.765 54.4763 112.476 55.0651 111.907 55.5442C111.338 56.0233 110.569 56.2628 109.611 56.2628C108.613 56.2628 107.835 56.0533 107.276 55.634C106.717 55.2148 106.367 54.5761 106.248 53.7377L107.565 53.538C107.635 54.087 107.835 54.4962 108.174 54.7657C108.513 55.0352 108.982 55.1749 109.591 55.1749C110.17 55.1749 110.619 55.0551 110.929 54.8056C111.238 54.5661 111.398 54.2667 111.398 53.9173C111.398 53.6778 111.328 53.4881 111.188 53.3484C111.048 53.2087 110.869 53.0989 110.649 53.029C110.44 52.9591 109.951 52.8294 109.202 52.6497C108.094 52.3802 107.356 52.0609 106.996 51.6816C106.637 51.3023 106.457 50.8532 106.457 50.3242C106.457 49.6654 106.717 49.1264 107.236 48.7072C107.755 48.288 108.463 48.0685 109.342 48.0685C110.28 48.0685 111.009 48.2481 111.528 48.6174C112.047 48.9867 112.356 49.5357 112.466 50.2643L111.168 50.414ZM104.74 56.0632H103.413V48.2182H104.74V56.0632ZM98.0233 55.155C98.6022 55.155 99.1012 54.9154 99.5005 54.4363C99.9097 53.9572 100.109 53.2386 100.109 52.2605C100.109 51.3023 99.9197 50.5437 99.5504 49.9748C99.1811 49.4059 98.6521 49.1264 97.9634 49.1264C97.2747 49.1264 96.7557 49.4059 96.3964 49.9549C96.0471 50.5038 95.8674 51.2324 95.8674 52.1407C95.8674 52.7895 95.9672 53.3384 96.1568 53.7975C96.3465 54.2467 96.616 54.586 96.9553 54.8156C97.2947 55.0452 97.654 55.155 98.0233 55.155ZM101.317 56.0632H100.079V55.0651H100.049C99.5703 55.8536 98.8517 56.2529 97.8836 56.2529C96.9254 56.2529 96.1169 55.8736 95.4781 55.115C94.8294 54.3565 94.51 53.3684 94.51 52.1507C94.51 50.8831 94.8094 49.885 95.4182 49.1464C96.0271 48.4078 96.8256 48.0485 97.8237 48.0485C98.7619 48.0485 99.4705 48.4078 99.9596 49.1165H99.9895V45.2239H101.317V56.0632Z" fill="#3B3B3A"/>
<path d="M189 5.07037H184.678V0.179688H189V5.07037ZM189 35.3128H184.678V9.89119H189V35.3128ZM179.418 35.3128H175.096V0.179688H179.418V35.3128ZM173.789 10.6797L172.312 14.6621C171.244 14.0333 170.196 13.7239 169.168 13.7239C167.551 13.7239 166.333 14.4525 165.505 15.8898C164.666 17.337 164.257 19.3631 164.257 21.9682V35.3128H159.945V9.89119H163.868V13.7139H163.968C165.345 10.7795 167.142 9.30231 169.357 9.30231C170.825 9.31229 172.312 9.77142 173.789 10.6797ZM151.781 20.1516C151.601 17.5566 150.803 15.6901 149.365 14.5523C147.938 13.4145 146.371 12.8456 144.674 12.8456C142.648 12.8456 140.981 13.5243 139.664 14.8817C138.356 16.2391 137.598 17.9958 137.388 20.1616H151.781V20.1516ZM156.212 23.6849H137.159C137.338 26.4996 138.137 28.6455 139.574 30.1326C141.001 31.6198 142.788 32.3684 144.934 32.3684C146.581 32.3684 147.958 31.9292 149.076 31.0609C150.184 30.1925 151.042 28.875 151.641 27.1184L156.073 27.6673C155.354 30.3223 154.037 32.3584 152.12 33.7757C150.194 35.203 147.798 35.9116 144.934 35.9116C141.111 35.9116 138.127 34.7439 135.981 32.4083C133.835 30.0728 132.757 26.8689 132.757 22.8166C132.757 18.8042 133.805 15.5504 135.891 13.0552C137.977 10.5699 140.902 9.31229 144.694 9.31229C146.551 9.31229 148.337 9.72151 150.054 10.54C151.771 11.3484 153.228 12.7358 154.426 14.692C155.604 16.6483 156.212 19.6526 156.212 23.6849ZM128.924 35.3128H124.593V19.2534C124.593 17.1773 124.144 15.6203 123.255 14.5823C122.367 13.5442 121.029 13.0252 119.253 13.0252C117.496 13.0252 115.929 13.644 114.542 14.8617C113.154 16.0894 112.476 18.2752 112.476 21.4192V35.3128H108.154V0.179688H112.476V12.7857C114.522 10.4701 117.077 9.31229 120.141 9.31229C121.788 9.31229 123.365 9.65165 124.862 10.3204C126.369 10.9891 127.427 12.0171 128.026 13.4145C128.635 14.8018 128.934 16.7381 128.934 19.2134V35.3128H128.924ZM99.8398 20.1516C99.6602 17.5566 98.8617 15.6901 97.4244 14.5523C95.9972 13.4145 94.4301 12.8456 92.7334 12.8456C90.7072 12.8456 89.0404 13.5243 87.7329 14.8817C86.4254 16.2391 85.6668 17.9958 85.4572 20.1616H99.8398V20.1516ZM104.281 23.6849H85.2177C85.3973 26.4996 86.1958 28.6455 87.6331 30.1326C89.0604 31.6198 90.847 32.3684 92.9929 32.3684C94.6397 32.3684 96.0171 31.9292 97.145 31.0609C98.2529 30.1925 99.1112 28.875 99.7001 27.1184L104.132 27.6673C103.413 30.3223 102.096 32.3584 100.179 33.7757C98.2529 35.203 95.8574 35.9116 92.9929 35.9116C89.1702 35.9116 86.1858 34.7439 84.0399 32.4083C81.894 30.0728 80.8161 26.8689 80.8161 22.8166C80.8161 18.8042 81.8641 15.5504 83.9501 13.0552C86.0361 10.5699 88.9606 9.31229 92.7533 9.31229C94.6098 9.31229 96.3964 9.72151 98.1131 10.54C99.8299 11.3484 101.287 12.7358 102.485 14.692C103.673 16.6483 104.281 19.6526 104.281 23.6849ZM73.1507 17.0076C72.9511 15.6203 72.3921 14.5723 71.4539 13.8736C70.5257 13.1749 69.2182 12.8356 67.5613 12.8356C65.9145 12.8356 64.587 13.115 63.5689 13.674C62.5509 14.2329 62.0518 15.0514 62.0518 16.1193C62.0518 17.1274 62.461 17.846 63.2595 18.2752C64.068 18.7044 65.6649 19.2334 68.0404 19.8522C70.7253 20.5409 72.7315 21.1497 74.0689 21.6787C75.3964 22.1977 76.4444 22.9463 77.173 23.8945C77.9216 24.8427 78.2909 26.1702 78.2909 27.857C78.2909 30.1227 77.3626 32.039 75.5062 33.5861C73.6497 35.1331 71.1744 35.9116 68.0803 35.9116C64.8465 35.9116 62.3313 35.2329 60.5147 33.8655C58.7082 32.4981 57.5903 30.442 57.1811 27.7172L61.4629 27.0685C61.6825 28.8451 62.3413 30.1726 63.4392 31.0509C64.5271 31.9292 66.0542 32.3684 68.0304 32.3684C69.9069 32.3684 71.3541 31.9691 72.3622 31.1806C73.3703 30.3921 73.8793 29.424 73.8793 28.2961C73.8793 27.5276 73.6397 26.9188 73.1806 26.4497C72.7115 25.9805 72.1326 25.6412 71.4339 25.4116C70.7353 25.1721 69.1782 24.7629 66.7529 24.174C63.1497 23.3056 60.7643 22.2576 59.6065 21.03C58.4487 19.8023 57.8698 18.3351 57.8698 16.6184C57.8698 14.4924 58.7082 12.7458 60.4049 11.3684C62.1017 9.991 64.3674 9.30231 67.2319 9.30231C70.2662 9.30231 72.6317 9.90117 74.3184 11.0889C76.0052 12.2766 77.0133 14.0533 77.3427 16.4088L73.1507 17.0076Z" fill="#3B3B3A"/>
</g>
<defs>
<clipPath id="clip0">
<rect width="189" height="59.2472" fill="white"/>
</clipPath>
</defs>
</svg>
